<svg xmlns="http://www.w3.org/2000/svg" aria-hidden="true" overflow="hidden" style="position:absolute;width:0;height:0">
  <defs>
    <symbol id="icon-google" viewBox="0 0 32 32">
      <path d="M16 32c8.836 0 16-7.164 16-16S24.836 0 16 0C7.163 0 0 7.163 0 16s7.163 16 16 16z"/>
      <path d="m31.64 19.385-9.783-9.783-8.156.651-4.166 3.803.535 8.273 9.263 9.322A16.018 16.018 0 0 0 31.64 19.385z"/>
      <path d="M16.349 14.529v3.066h4.795A5.386 5.386 0 0 1 10.616 16 5.384 5.384 0 0 1 16 10.616c1.39 0 2.652.531 3.608 1.395l2.25-2.409a8.675 8.675 0 1 0 2.818 6.397c0-.502-.046-.992-.129-1.471H16.35z"/>
      <path fill="var(--color4, #ea4335)" d="M16 10.615c1.39 0 2.652.531 3.608 1.395l2.25-2.409a8.64 8.64 0 0 0-5.857-2.277 8.673 8.673 0 0 0-7.664 4.611l2.647 2.12a5.381 5.381 0 0 1 5.017-3.441z"/>
      <path fill="var(--color5, #fbbc05)" d="M10.616 16.001c0-.686.133-1.34.367-1.943l-2.647-2.12a8.634 8.634 0 0 0-1.01 4.063 8.63 8.63 0 0 0 1.019 4.08l2.632-2.156a5.365 5.365 0 0 1-.36-1.924z"/>
      <path fill="var(--color6, #34a853)" d="M18.994 20.473a5.348 5.348 0 0 1-2.993.913 5.381 5.381 0 0 1-5.024-3.46l-2.632 2.156a8.673 8.673 0 0 0 13.293 2.509l-2.644-2.118z"/>
      <path fill="var(--color3, #4285f4)" d="M24.675 16c0-.502-.046-.992-.129-1.471h-8.197v3.066h4.795a5.393 5.393 0 0 1-2.15 2.876l2.644 2.118a8.653 8.653 0 0 0 3.037-6.59z"/>
    </symbol>
    <symbol id="icon-arrow" viewBox="0 0 37 32">
      <path d="M15.472.064C14.701.195 15-.083 7.453 7.459 1.16 13.747.424 14.504.277 14.83A2.696 2.696 0 0 0 .014 16c0 .403.087.785.243 1.129l-.007-.017c.128.307.819 1.021 6.992 7.208a669.527 669.527 0 0 0 7.034 6.994l.113.11c.984.795 2.464.717 3.421-.176.345-.317.602-.724.734-1.184l.004-.018a2.71 2.71 0 0 0-.207-2.014l.007.015c-.088-.179-2.019-2.152-6.019-6.16l-5.888-5.893 5.888-5.896c4-4.005 5.931-5.981 6.019-6.157.56-1.12.344-2.379-.549-3.213-.627-.587-1.424-.811-2.328-.661zm18.667 0c-.771.131-.472-.147-8.019 7.395-6.293 6.288-7.029 7.045-7.176 7.371a2.696 2.696 0 0 0-.263 1.17c0 .403.087.785.243 1.129l-.007-.017c.128.307.819 1.021 6.992 7.208a669.527 669.527 0 0 0 7.034 6.994l.113.11c1.032.832 2.595.701 3.536-.291a2.647 2.647 0 0 0 .697-2.242l.002.015c-.157-.92.168-.557-6.291-7.021l-5.891-5.893L31 10.096c6.459-6.464 6.133-6.099 6.291-7.019.235-1.371-.744-2.757-2.128-3.016a2.542 2.542 0 0 0-1.041.005l.017-.003z"/>
    </symbol>
    <symbol id="icon-facebook" viewBox="0 0 32 32">
      <path d="M3.338.056c-.528.09-1.262.4-1.685.714-.578.432-1.09 1.078-1.342 1.698-.33.811-.31-.03-.31 13.533s-.019 12.722.31 13.533a4.195 4.195 0 0 0 2.129 2.145l.027.011c.787.32.579.312 7.346.312h6.189V21.015h-4v-5.013h3.994l.019-2.467c.019-2.464.019-2.467.158-2.973.597-2.176 2.182-3.786 4.298-4.362l.518-.141 5.04-.037v4.955l-1.64.019c-1.626.018-1.643.019-1.907.152-.462.23-.453.173-.453 2.68v2.173h2.485c1.968 0 2.48.014 2.459.067l-1.978 4.946h-2.966v10.987l3.186-.002c3.39 0 3.528-.01 4.221-.267.95-.357 1.87-1.251 2.256-2.198.33-.811.31.03.31-13.533s.019-12.722-.31-13.533A4.069 4.069 0 0 0 29.764.437L29.74.426c-.952-.461.178-.427-13.784-.419C9.162.01 3.484.033 3.34.057z"/>
    </symbol>
    <symbol id="icon-instagram" viewBox="0 0 32 32">
      <path d="M12.89.056c-2.026.064-4.234.21-6.429.426-1.515.149-1.896.245-2.781.698A5.798 5.798 0 0 0 .695 4.919l-.008.04c-.162.634-.418 3.446-.59 6.482-.091 1.614-.091 7.53 0 9.12.147 2.565.389 5.416.52 6.138a5.897 5.897 0 0 0 2.206 3.598c.419.317 1.23.741 1.71.894.402.13 1.08.254 1.654.306.219.021.435.043.48.051.043.008.283.03.533.05s.538.046.64.059c.291.035 2.302.173 3.627.246 1.595.091 7.47.091 9.066 0a128.56 128.56 0 0 0 5.324-.396l-.524.041c.045-.008.261-.03.48-.051 1.048-.093 1.73-.278 2.507-.675a5.788 5.788 0 0 0 3.06-4.088l.005-.036c.096-.522.314-2.893.426-4.645a97.503 97.503 0 0 0-.327-16.093l.035.413c-.154-1.512-.394-2.299-.973-3.187a5.747 5.747 0 0 0-2.194-1.991l-.032-.015c-.835-.427-1.27-.544-2.48-.669C22.862.192 19.406.01 15.909.01c-1.062 0-2.119.017-3.173.05l.154-.004zm6.95 6.078c1.118.037 1.646.077 2 .152 2.112.442 3.638 2.019 4.054 4.187.211 1.099.208 9.962-.003 11.069-.41 2.149-1.949 3.733-4.05 4.171-.739.154-3.453.226-7.149.187-3.294-.034-4.069-.074-4.746-.246a5.77 5.77 0 0 1-1.632-.751l.021.013c-1.027-.696-1.827-1.902-2.13-3.205-.23-.995-.251-1.419-.27-5.547-.019-3.816-.014-3.998.094-4.746.144-.994.322-1.675.582-2.23.525-1.118 1.291-1.941 2.283-2.443.866-.44 1.491-.562 3.157-.611 1.934-.058 6.099-.058 7.787 0zM11.206 7.95c-1.696.163-2.872 1.165-3.237 2.754-.138.6-.214 4.75-.144 7.763.066 2.787.083 2.926.462 3.693.272.549.707 1.03 1.202 1.331.426.259 1.166.491 1.774.558.683.075 8.851.077 9.509.002 1.965-.222 3.11-1.298 3.398-3.184.086-.576.088-9.152 0-9.726-.29-1.904-1.44-2.995-3.363-3.19-.65-.067-8.914-.066-9.602 0zm10.703 1.573c.429.183.724.602.724 1.089v.03-.001c0 .709-.504 1.2-1.232 1.2a1.2 1.2 0 1 1 0-2.4c.17 0 .4.037.509.083zm-4.549 1.541c.925.272 1.498.603 2.202 1.278a5.007 5.007 0 0 1 1.408 2.381c.106.386.122.573.118 1.304-.003.768-.018.901-.147 1.333-.278.922-.611 1.499-1.25 2.168-.658.691-1.368 1.122-2.331 1.413-.434.13-.562.144-1.333.147-.73.002-.92-.016-1.307-.122a4.95 4.95 0 0 1-2.191-1.218l.002.002a5.12 5.12 0 0 1-1.472-2.39c-.128-.429-.144-.57-.149-1.333-.003-.734.013-.917.118-1.304a5.105 5.105 0 0 1 1.404-2.381l.002-.002c.774-.754 1.592-1.184 2.632-1.386.602-.117 1.701-.066 2.293.109zm-2.032 1.651a3.436 3.436 0 0 0-2.609 2.622l-.004.022c-.342 1.605.653 3.298 2.245 3.824.594.195 1.416.206 2 .026a3.348 3.348 0 0 0 2.21-4.277l.007.024a3.351 3.351 0 0 0-2.114-2.129l-.024-.007c-.528-.168-1.243-.213-1.712-.106z"/>
    </symbol>
    <symbol id="icon-mark" viewBox="0 0 22 32">
      <path fill="var(--color1, #fc1200)" d="M10.138.022c-2.172.174-4.154.882-5.794 2.07a11.474 11.474 0 0 0-2.373 2.345l-.021.029A10.186 10.186 0 0 0 .344 7.832l-.016.072c-.556 2.184-.39 4.26.574 7.126 1.11 3.298 3.366 7.504 6.402 11.934 1.252 1.828 1.96 2.778 2.22 2.974.828.634 2 .602 2.75-.072.302-.272 1.32-1.674 2.594-3.576 3.906-5.828 6.194-10.73 6.728-14.41.64-4.4-1.63-8.638-5.72-10.684A10.91 10.91 0 0 0 12.283.094l-.055-.006c-.4-.052-1.74-.094-2.09-.066zm1.79 6.628c1.896.501 3.272 2.201 3.272 4.222 0 .381-.049.75-.141 1.102l.007-.03a4.384 4.384 0 0 1-3.72 3.236l-.02.002c-1.77.206-3.544-.764-4.36-2.386-.294-.584-.404-1.048-.428-1.796-.016-.526-.008-.656.062-.99a4.393 4.393 0 0 1 3.475-3.428l.027-.004c.172-.034.452-.044.862-.036.502.01.664.028.964.108zm-1.54 2.096a2.249 2.249 0 0 0-1.591 1.44l-.005.016c-.11.352-.118.97-.014 1.274.32.942 1.108 1.54 2.04 1.548a2.138 2.138 0 0 0 1.764-.85c.3-.4.44-.816.438-1.318l.001-.048c0-.575-.24-1.094-.626-1.462l-.001-.001a2.137 2.137 0 0 0-2.02-.598l.014-.003z"/>
    </symbol>
    <symbol id="icon-star" viewBox="0 0 35 32">
      <path fill="var(--color2, #ffc700)" d="M17.16.219c-.24.061-.435.259-.547.56.763-2.85.17-1.081-.416.691L14.871 6.1c-.894 2.76-1.67 5.09-1.722 5.179a.893.893 0 0 1-.328.276l-.005.002c-.234.114-.379.117-5.861.117-5.555 0-5.624.002-5.814.118a.76.76 0 0 0-.293.379l-.002.005c-.134.352-.05.654.256.906.12.099 2.17 1.598 4.554 3.331 2.386 1.733 4.392 3.226 4.459 3.317.08.107.122.251.118.411-.002.154-.634 2.181-1.715 5.501-.942 2.891-1.714 5.315-1.714 5.389 0 .398.389.765.811.765.298 0-.01.211 5.082-3.486.165-.163 1.559-1.178 2.959-2.186l1.322-.905a.761.761 0 0 1 .738-.021l-.004-.002c.091.046 2.062 1.462 4.382 3.147 5.181 3.762 4.736 3.454 5.019 3.454.448 0 .811-.336.811-.752 0-.107-.765-2.55-1.701-5.427-1.206-3.712-1.701-5.31-1.701-5.498 0-.206.035-.307.162-.451.088-.102 2.114-1.602 4.502-3.331 2.387-1.731 4.429-3.232 4.536-3.338.354-.349.294-.955-.118-1.206-.19-.117-.28-.118-5.826-.118-5.246 0-5.646-.008-5.834-.104a1.024 1.024 0 0 1-.309-.25l-.001-.002c-.061-.082-.885-2.533-1.832-5.445-.965-2.968-1.77-5.349-1.83-5.418a.822.822 0 0 0-.819-.237l.006-.001z"/>
    </symbol>
    <symbol id="icon-twiter" viewBox="0 0 32 32">
      <path d="M13.52.032C10.832.13 8.549.275 6.472.48c-1.531.152-1.906.246-2.792.699A5.798 5.798 0 0 0 .695 4.918l-.008.04c-.162.634-.418 3.446-.59 6.482-.091 1.611-.091 7.528 0 9.12.147 2.582.386 5.403.518 6.138a5.895 5.895 0 0 0 3.891 4.487l.041.012c.723.238.872.243 6.008.229l4.875-.014-.256-.272.933.03c.514.018 1.546.043 2.293.056 3.232.061 5.446.107 7.31.158.221.005.429.026.461.046.085.053.886-.099 1.331-.251a5.904 5.904 0 0 0 3.7-3.75l.012-.042c.198-.632.293-1.357.464-3.6.36-4.726.414-9.381.158-13.467-.162-2.576-.379-4.795-.528-5.378a5.986 5.986 0 0 0-2.118-3.228l-.013-.01A6.5 6.5 0 0 0 26.918.653l-.045-.01c-.549-.12-3.605-.381-5.986-.512-1.338-.074-6.261-.141-7.368-.099zm7.376 8.027c.498.125 1.176.478 1.586.824l.322.272.339-.069a7.328 7.328 0 0 0 1.712-.606l-.042.019a6.25 6.25 0 0 1 .493-.232c.064 0 .016.16-.158.523a3.898 3.898 0 0 1-1.112 1.436l-.008.006-.214.174.214-.035c.603-.11 1.128-.252 1.635-.435l-.07.022c.181-.074.328-.12.328-.106 0 .016-.138.222-.307.459-.333.469-1.168 1.342-1.434 1.499l-.166.098-.035.752c-.155 3.296-1.299 5.907-3.558 8.123-1.966 1.928-4.475 3.058-7.291 3.278-1.717.136-3.83-.202-5.283-.843l-.29-.128-.165.147c-.15.136-.154.138-.043.011.168-.192.149-.258-.027-.09l-.147.139-.509-.496-.509-.494.909-.032c1.269-.043 2.216-.259 3.296-.752.373-.17 1.442-.832 1.502-.931.014-.022-.155-.07-.378-.104a5.452 5.452 0 0 1-.82-.207l.039.011c-.302-.104-.394-.118-.458-.066-.067.054-.074.048-.043-.034.026-.066.016-.09-.03-.075-.093.032-.917-.709-1.25-1.123-.272-.339-.563-.864-.63-1.136l-.034-.139.523.022.525.021-.862-.842c-.899-.882-1.099-1.131-1.357-1.701-.224-.491-.451-1.622-.328-1.622.026 0 .141.046.256.101.117.056.342.141.504.187.291.083.97.195 1.005.163a3.453 3.453 0 0 0-.384-.398l-.004-.003a4.03 4.03 0 0 1-1.125-1.728l-.008-.028c-.13-.394-.154-1.395-.048-1.922.083-.405.378-1.278.434-1.278.011 0 .339.32.73.709a11.212 11.212 0 0 0 3.252 2.336l.068.029a10.87 10.87 0 0 0 3.436 1.025l.055.006c.25.032.546.056.658.056.205 0 .206 0 .168-.173-.058-.258-.042-1.034.029-1.427.251-1.397 1.358-2.659 2.734-3.118a4.256 4.256 0 0 1 2.406-.068l-.03-.007zm5.437 23.333c-.018.018-.064.019-.102.005-.043-.018-.03-.03.032-.032.056-.003.088.01.07.027zm-20.103.11c.038.016.085.014.102-.003s-.014-.03-.07-.029c-.062.003-.075.016-.032.032zm19.466 0c.038.016.085.014.102-.003s-.013-.03-.069-.029c-.062.003-.075.016-.034.032zm-18.933.055c.038.014.085.013.102-.005s-.014-.03-.07-.027c-.062.002-.075.014-.032.032zm18.4 0c.038.014.085.013.102-.005s-.014-.03-.07-.027c-.062.002-.075.014-.032.032zM7.35 31.61c.038.016.085.014.102-.005.018-.018-.014-.029-.07-.027-.062.003-.075.014-.032.032zm17.226 0c.038.016.085.014.102-.005.018-.018-.013-.029-.069-.027-.062.003-.075.014-.034.032zm-16.643.052a.226.226 0 0 0 .136 0h-.002c.037-.016.006-.027-.067-.027s-.104.011-.067.027zm16 0a.226.226 0 0 0 .136 0h-.002c.037-.016.006-.027-.067-.027s-.104.011-.067.027zm-15.306.053a.203.203 0 0 0 .134 0H8.76c.037-.014.006-.027-.067-.027-.072 0-.102.013-.066.027zm14.613 0a.203.203 0 0 0 .134 0h-.001c.037-.014.006-.027-.066-.027-.074 0-.104.013-.067.027zm-13.92.053a.19.19 0 0 0 .133 0c.037-.014.006-.026-.066-.026-.074 0-.104.011-.067.026zm13.227 0a.19.19 0 0 0 .133 0c.037-.014.006-.026-.067-.026-.072 0-.102.011-.066.026zm-12.345.056a.312.312 0 0 0 .162-.002l-.002.001c.035-.016-.006-.027-.094-.026s-.118.013-.066.027zm11.465 0a.312.312 0 0 0 .162-.002l-.002.001c.037-.016-.006-.027-.094-.026s-.117.013-.066.027zm-10.505.053a.312.312 0 0 0 .162-.002l-.002.001c.035-.014-.006-.026-.094-.026-.088.002-.118.014-.066.027zm9.545 0a.312.312 0 0 0 .162-.002l-.002.001c.037-.014-.006-.026-.094-.026-.088.002-.117.014-.066.027zm-8.347.054a.747.747 0 0 0 .244 0l-.004.001c.066-.013.011-.024-.12-.024s-.186.011-.12.024zm7.094 0a.545.545 0 0 0 .216-.003l-.004.001c.051-.013-.003-.024-.12-.022-.118 0-.16.011-.093.024zm-5.092.055c.141.011.357.011.48 0s.01-.021-.254-.021c-.264.002-.366.01-.226.021zm2.827 0c.139.011.355.011.48 0 .123-.011.008-.021-.256-.021-.264.002-.365.01-.224.021z"/>
    </symbol>
    <symbol id="icon-burger" viewBox="0 0 32 32">
      <path d="M0 6.4V8h32V4.8H0v1.6zM0 16v1.6h32v-3.2H0V16zm0 9.6v1.6h32V24H0v1.6z"/>
    </symbol>
    <symbol id="icon-logo" viewBox="0 0 209 32">
      <path d="M2.872 1.677c-.239.153-.856 2.11-1.371 4.35C.763 9.23.654 10.189.987 10.524c.729.729 1.588-.18 2.08-2.205.251-1.034.61-2.467.797-3.187l.34-1.305 1.987.005c3.852.01 3.555-.625 3.554 7.606-.002 3.951-.103 9.398-.227 12.104l-.224 4.923-1.704.226c-1.723.229-2.469.931-1.75 1.651.473.473 13.622.458 14.097-.017.716-.716-.064-1.408-1.853-1.645l-1.789-.237.217-10.306c.12-5.667.301-11.128.406-12.133l.187-1.827h5.443l.534 2.349c.785 3.464 1.157 4.264 1.981 4.264 1.069 0 1.142-.664.391-3.51-.376-1.42-.78-3.17-.901-3.887-.12-.717-.408-1.302-.638-1.299-3.872.057-19.702-.32-20.086-.48-.286-.118-.717-.091-.957.062zm106.005.454c-.832.515-.077 1.529 1.379 1.853l1.482.328-.091 12.029-.091 12.027-1.393.175c-1.196.148-1.393.293-1.393 1.021v.847l6.2-.015c6.366-.015 7.424-.226 6.535-1.295-.236-.285-.847-.566-1.359-.625l-.933-.108-.091-12.866c-.051-7.123-.232-13.005-.408-13.182-.355-.354-9.292-.527-9.837-.189zm85.094.212c-.298.778.849 1.485 2.408 1.485h1.325v7.966l-1.48-.845c-1.984-1.135-5.605-1.194-7.808-.128-5.459 2.643-7.294 12.52-3.24 17.44 2.831 3.434 7.82 3.608 11.048.384l1.48-1.477v1.514c0 1.822.621 2.483 1.996 2.12.529-.14 2.607-.354 4.616-.475 3.608-.217 3.655-.231 3.655-1.09 0-.792-.15-.879-1.652-.977l-1.654-.106V1.826l-5.243-.013c-4.436-.012-5.277.071-5.452.529zM80.497 10.355c-.3.783.195 1.428 1.187 1.541.913.106 1.029.317 1.881 3.419 1.086 3.955 2.048 6.403 3.64 9.263 1.716 3.082 4.952 7.097 5.718 7.097 1.315 0 6.477-9.477 8.552-15.704l1.231-3.695 1.467-.31c1.243-.263 1.465-.44 1.465-1.167v-.857l-3.944-.012c-2.813-.007-4.052.12-4.318.44-.519.625.126 1.206 1.821 1.639l1.363.349-.876 2.611c-.48 1.435-1.651 4.241-2.6 6.235l-1.725 3.626-1.032-1.629a39.29 39.29 0 0 1-1.581-2.695l-.115-.234c-1.032-2.033-2.872-7.473-2.686-7.953.091-.239.605-.483 1.144-.546.77-.088.977-.291.977-.95v-.835l-5.699-.034c-4.264-.025-5.743.076-5.868.401zm-17.033.363c-2.599.928-4.101 2.225-5.223 4.507-.859 1.748-.984 2.403-.984 5.137 0 3.581.679 5.42 2.816 7.619 2.984 3.072 8.019 4.184 12.056 2.661 2.073-.783 3.501-2.131 3.171-2.993-.227-.589-1.366-.667-1.706-.116-.404.653-3.047 1.689-4.328 1.696-2.447.012-4.458-2.12-5.068-5.373-.222-1.184-.18-1.317.349-1.115 2.429.933 9.184.339 11.205-.987.712-.467.824-.817.824-2.605 0-3.815-1.597-6.708-4.525-8.207-1.812-.926-6.291-1.044-8.586-.224zm71.586-.325c-1.917.408-4.835 2.159-6.141 3.683-1.448 1.691-2.488 4.839-1.851 5.605.926 1.117 1.715.406 2.23-2.011.266-1.24 2.003-3.2 3.32-3.746 1.585-.655 3.416-.157 4.913 1.341 1.194 1.194 2.425 3.971 1.965 4.433-.111.111-1.4.35-2.86.532-7.264.901-11.49 4.979-9.384 9.053.596 1.152 2.848 2.371 4.403 2.383 1.757.015 4.886-1.438 6.653-3.089l1.715-1.602-.243 1.765c-.307 2.247.138 2.727 2.043 2.2.726-.2 2.909-.47 4.851-.598 3.471-.231 3.53-.249 3.53-1.105 0-.792-.15-.879-1.654-.977l-1.654-.106-.012-3.2c-.022-5.664-1.189-10.11-3.247-12.371-1.686-1.854-5.538-2.838-8.576-2.191zm-91.715.957c-.574.315-1.3.795-1.612 1.066-.502.438-.593.394-.79-.391l-.222-.888h-5.224c-4.424 0-5.258.084-5.435.546-.312.812.33 1.253 2.115 1.453l1.597.18v14.877h-1.068c-1.31 0-2.413.554-2.413 1.213 0 .815.999 1.122 2.723.837 2.139-.352 7.168-.352 8.989 0 1.543.3 2.558-.032 2.558-.837 0-.659-1.101-1.213-2.413-1.213h-1.066l.002-4.96c.002-5.871.328-7.286 2.083-9.043 1.162-1.16 1.509-1.312 3.008-1.307.931.003 1.928.157 2.216.342.423.275.374.339-.256.344-.428.003-1.285.458-1.907 1.014-.935.834-1.128 1.261-1.128 2.472 0 2.796 3.306 4.49 5.459 2.796 2.503-1.969 2.07-5.945-.888-8.153-1.273-.952-4.866-1.149-6.328-.349zm123.498.118c-.802.364-1.821 1.08-2.262 1.592l-.803.928-.175-1.319-.173-1.32-10.442-.035v.869c0 .79.162.888 1.74 1.044l1.741.175.093 7.51.094 7.512-1.661.32c-1.452.281-1.659.429-1.659 1.191 0 .756.138.859 1.044.78.574-.051 3.315-.104 6.09-.12 3.165-.019 5.132-.167 5.277-.399.394-.638-.072-1.253-1.128-1.485l-1.016-.222v-4.952c0-4.635.059-5.066.906-6.769 1.137-2.28 2.781-3.571 4.849-3.803 2.856-.322 4.057 1.661 4.049 6.68-.005 2.858-.547 7.587-.943 8.229-.088.141-.935.364-1.881.493-1.923.264-2.777.933-2.152 1.686.515.621 9.386.376 10.078-.278.783-.741-.419-1.58-2.264-1.58h-1.58l.211-1.132c1.928-10.292.084-16.283-5.007-16.263-.861.003-2.221.305-3.025.669zm-96.285 1.086c2.215.839 3.917 3.493 3.931 6.127l.008 1.452-2.419.549c-2.867.652-3.907.679-6.311.163l-1.802-.386.194-1.891c.254-2.456 1.393-4.77 2.787-5.662 1.251-.802 2.184-.893 3.611-.352zm124.706.143c1.952 1.009 2.451 2.07 2.451 5.213 0 3.315-.603 5.622-2.07 7.934-2.872 4.529-8.067 3.988-9.987-1.036-.414-1.083-.522-2.24-.409-4.382.189-3.597 1.462-6.213 3.626-7.454 1.62-.93 4.854-1.068 6.39-.275zm-55.33 10.025c0 2.425-5.209 6.85-8.076 6.861-2.464.008-3.597-1.58-2.609-3.656.911-1.91 5.504-3.778 9.728-3.958.775-.032.957.109.957.753z"/>
    </symbol>
  </defs>
</svg>
