<svg aria-hidden="true" style="position: absolute; width: 0; height: 0; overflow: hidden;" version="1.1" xmlns="http://www.w3.org/2000/svg" xmlns:xlink="http://www.w3.org/1999/xlink">
<defs>
<symbol id="icon-arrow" viewBox="0 0 37 32">
<path d="M15.472 0.064c-0.771 0.131-0.472-0.147-8.019 7.395-6.293 6.288-7.029 7.045-7.176 7.371-0.166 0.343-0.263 0.745-0.263 1.17 0 0.403 0.087 0.785 0.243 1.129l-0.007-0.017c0.128 0.307 0.819 1.021 6.992 7.208 2.36 2.381 4.688 4.696 7.034 6.994l0.113 0.11c0.984 0.795 2.464 0.717 3.421-0.176 0.345-0.317 0.602-0.724 0.734-1.184l0.004-0.018c0.067-0.224 0.105-0.482 0.105-0.748 0-0.457-0.113-0.888-0.312-1.266l0.007 0.015c-0.088-0.179-2.019-2.152-6.019-6.16l-5.888-5.893 5.888-5.896c4-4.005 5.931-5.981 6.019-6.157 0.56-1.12 0.344-2.379-0.549-3.213-0.627-0.587-1.424-0.811-2.328-0.661zM34.139 0.064c-0.771 0.131-0.472-0.147-8.019 7.395-6.293 6.288-7.029 7.045-7.176 7.371-0.166 0.343-0.263 0.745-0.263 1.17 0 0.403 0.087 0.785 0.243 1.129l-0.007-0.017c0.128 0.307 0.819 1.021 6.992 7.208 2.36 2.381 4.688 4.696 7.034 6.994l0.113 0.11c1.032 0.832 2.595 0.701 3.536-0.291 0.451-0.475 0.729-1.119 0.729-1.828 0-0.141-0.011-0.279-0.032-0.414l0.002 0.015c-0.157-0.92 0.168-0.557-6.291-7.021l-5.891-5.893 5.891-5.896c6.459-6.464 6.133-6.099 6.291-7.019 0.235-1.371-0.744-2.757-2.128-3.016-0.152-0.033-0.327-0.052-0.506-0.052-0.184 0-0.363 0.020-0.535 0.057l0.017-0.003z"></path>
</symbol>
<symbol id="icon-facebook" viewBox="0 0 32 32">
<path fill="inherit" style="fill: inherit"" d="M3.338 0.056c-0.528 0.090-1.262 0.4-1.685 0.714-0.578 0.432-1.090 1.078-1.342 1.698-0.33 0.811-0.31-0.030-0.31 13.533s-0.019 12.722 0.31 13.533c0.429 0.968 1.187 1.726 2.129 2.145l0.027 0.011c0.787 0.32 0.579 0.312 7.346 0.312h6.189v-10.987h-4v-5.013h3.994l0.019-2.467c0.019-2.464 0.019-2.467 0.158-2.973 0.597-2.176 2.182-3.786 4.298-4.362l0.518-0.141 5.040-0.037v4.955l-1.64 0.019c-1.626 0.018-1.643 0.019-1.907 0.152-0.462 0.23-0.453 0.173-0.453 2.68v2.173h2.485c1.968 0 2.48 0.014 2.459 0.067l-1.978 4.946h-2.966v10.987l3.186-0.002c3.39 0 3.528-0.010 4.221-0.267 0.95-0.357 1.87-1.251 2.256-2.198 0.33-0.811 0.31 0.030 0.31-13.533s0.019-12.722-0.31-13.533c-0.393-0.899-1.076-1.611-1.928-2.031l-0.024-0.011c-0.952-0.461 0.178-0.427-13.784-0.419-6.794 0.003-12.472 0.026-12.616 0.050z"></path>
</symbol>
<symbol id="icon-google" viewBox="0 0 32 32">
<path d="M14.933 0.034c-4.698 0.35-8.885 2.621-11.717 6.352-1.618 2.134-2.626 4.57-3.070 7.427-0.163 1.045-0.163 3.33 0 4.374 0.685 4.389 2.806 7.99 6.245 10.6 2.509 1.905 5.658 3.090 9.078 3.195l0.024 0.001c1.576 0.050 3.115-0.122 4.637-0.517 2.016-0.523 4.202-1.634 5.925-3.011 0.683-0.544 1.856-1.717 2.4-2.4 1.338-1.674 2.459-3.856 2.976-5.787 0.157-0.584 0.368-1.664 0.47-2.4 0.046-0.323 0.070-1.022 0.069-1.92-0.003-1.158-0.024-1.544-0.115-2.134-0.442-2.843-1.456-5.298-3.067-7.422-2.646-3.486-6.427-5.682-10.787-6.258-0.624-0.083-2.48-0.142-3.067-0.099zM9.653 12.978c0.661 0.526 1.23 0.984 1.266 1.018 0.051 0.046 0.035 0.15-0.069 0.48-0.461 1.453-0.192 3.234 0.688 4.538 0.986 1.434 2.615 2.365 4.461 2.374h0.001c0.989 0 2.17-0.338 2.842-0.813 0.099-0.069 0.171-0.088 0.214-0.054l2.544 2.027c0.043 0.038-0.366 0.374-0.827 0.677-0.874 0.575-1.894 1.014-2.989 1.257l-0.061 0.011c-0.458 0.104-0.675 0.118-1.723 0.117-1.338 0-1.72-0.058-2.798-0.419-2.136-0.714-3.973-2.341-5.006-4.43-0.963-1.949-1.12-4.461-0.41-6.533 0.251-0.73 0.523-1.294 0.602-1.246 0.037 0.022 0.606 0.47 1.266 0.997z"></path>
</symbol>
<symbol id="icon-instagram" viewBox="0 0 32 32">
<path d="M12.89 0.056c-2.026 0.064-4.234 0.21-6.429 0.426-1.515 0.149-1.896 0.245-2.781 0.698-1.485 0.766-2.579 2.117-2.985 3.739l-0.008 0.040c-0.162 0.634-0.418 3.446-0.59 6.482-0.091 1.614-0.091 7.53 0 9.12 0.147 2.565 0.389 5.416 0.52 6.138 0.256 1.413 1.070 2.742 2.206 3.598 0.419 0.317 1.23 0.741 1.71 0.894 0.402 0.13 1.080 0.254 1.654 0.306 0.219 0.021 0.435 0.043 0.48 0.051 0.043 0.008 0.283 0.030 0.533 0.050s0.538 0.046 0.64 0.059c0.291 0.035 2.302 0.173 3.627 0.246 1.595 0.091 7.47 0.091 9.066 0 2.013-0.111 3.673-0.238 5.324-0.396l-0.524 0.041c0.045-0.008 0.261-0.030 0.48-0.051 1.048-0.093 1.73-0.278 2.507-0.675 1.588-0.819 2.732-2.311 3.060-4.088l0.005-0.036c0.096-0.522 0.314-2.893 0.426-4.645 0.121-1.808 0.19-3.919 0.19-6.046 0-3.393-0.175-6.745-0.517-10.047l0.035 0.413c-0.154-1.512-0.394-2.299-0.973-3.187-0.555-0.854-1.307-1.535-2.194-1.991l-0.032-0.015c-0.835-0.427-1.27-0.544-2.48-0.669-2.978-0.319-6.434-0.501-9.931-0.501-1.062 0-2.119 0.017-3.173 0.050l0.154-0.004zM19.84 6.134c1.118 0.037 1.646 0.077 2 0.152 2.112 0.442 3.638 2.019 4.054 4.187 0.211 1.099 0.208 9.962-0.003 11.069-0.41 2.149-1.949 3.733-4.050 4.171-0.739 0.154-3.453 0.226-7.149 0.187-3.294-0.034-4.069-0.074-4.746-0.246-0.613-0.176-1.148-0.428-1.632-0.751l0.021 0.013c-1.027-0.696-1.827-1.902-2.13-3.205-0.23-0.995-0.251-1.419-0.27-5.547-0.019-3.816-0.014-3.998 0.094-4.746 0.144-0.994 0.322-1.675 0.582-2.23 0.525-1.118 1.291-1.941 2.283-2.443 0.866-0.44 1.491-0.562 3.157-0.611 1.934-0.058 6.099-0.058 7.787 0zM11.206 7.95c-1.696 0.163-2.872 1.165-3.237 2.754-0.138 0.6-0.214 4.75-0.144 7.763 0.066 2.787 0.083 2.926 0.462 3.693 0.272 0.549 0.707 1.030 1.202 1.331 0.426 0.259 1.166 0.491 1.774 0.558 0.683 0.075 8.851 0.077 9.509 0.002 1.965-0.222 3.11-1.298 3.398-3.184 0.086-0.576 0.088-9.152 0-9.726-0.29-1.904-1.44-2.995-3.363-3.19-0.65-0.067-8.914-0.066-9.602 0zM21.909 9.523c0.429 0.183 0.724 0.602 0.724 1.089 0 0.010-0 0.020-0 0.030l0-0.001c0 0.709-0.504 1.2-1.232 1.2-0.663 0-1.2-0.537-1.2-1.2s0.537-1.2 1.2-1.2v0c0.17 0 0.4 0.037 0.509 0.083zM17.36 11.064c0.925 0.272 1.498 0.603 2.202 1.278 0.694 0.664 1.152 1.437 1.408 2.381 0.106 0.386 0.122 0.573 0.118 1.304-0.003 0.768-0.018 0.901-0.147 1.333-0.278 0.922-0.611 1.499-1.25 2.168-0.658 0.691-1.368 1.122-2.331 1.413-0.434 0.13-0.562 0.144-1.333 0.147-0.73 0.002-0.92-0.016-1.307-0.122-0.857-0.224-1.595-0.647-2.191-1.218l0.002 0.002c-0.731-0.688-1.184-1.424-1.472-2.39-0.128-0.429-0.144-0.57-0.149-1.333-0.003-0.734 0.013-0.917 0.118-1.304 0.254-0.943 0.744-1.75 1.404-2.381l0.002-0.002c0.774-0.754 1.592-1.184 2.632-1.386 0.602-0.117 1.701-0.066 2.293 0.109zM15.328 12.715c-1.316 0.298-2.33 1.324-2.609 2.622l-0.004 0.022c-0.342 1.605 0.653 3.298 2.245 3.824 0.594 0.195 1.416 0.206 2 0.026 1.392-0.424 2.387-1.697 2.387-3.202 0-0.376-0.062-0.737-0.177-1.075l0.007 0.024c-0.338-1.015-1.123-1.798-2.114-2.129l-0.024-0.007c-0.528-0.168-1.243-0.213-1.712-0.106z"></path>
</symbol>
<symbol id="icon-logo" viewBox="0 0 209 32">
<path fill="#fff" style="fill: var(--color2, #fff)" d="M2.872 1.677c-0.239 0.153-0.856 2.11-1.371 4.35-0.738 3.203-0.847 4.162-0.514 4.497 0.729 0.729 1.588-0.18 2.080-2.205 0.251-1.034 0.61-2.467 0.797-3.187l0.34-1.305 1.987 0.005c3.852 0.010 3.555-0.625 3.554 7.606-0.002 3.951-0.103 9.398-0.227 12.104l-0.224 4.923-1.704 0.226c-1.723 0.229-2.469 0.931-1.75 1.651 0.473 0.473 13.622 0.458 14.097-0.017 0.716-0.716-0.064-1.408-1.853-1.645l-1.789-0.237 0.217-10.306c0.12-5.667 0.301-11.128 0.406-12.133l0.187-1.827h5.443l0.534 2.349c0.785 3.464 1.157 4.264 1.981 4.264 1.069 0 1.142-0.664 0.391-3.51-0.376-1.42-0.78-3.17-0.901-3.887-0.12-0.717-0.408-1.302-0.638-1.299-3.872 0.057-19.702-0.32-20.086-0.48-0.286-0.118-0.717-0.091-0.957 0.062zM108.877 2.131c-0.832 0.515-0.077 1.529 1.379 1.853l1.482 0.328-0.091 12.029-0.091 12.027-1.393 0.175c-1.196 0.148-1.393 0.293-1.393 1.021v0.847l6.2-0.015c6.366-0.015 7.424-0.226 6.535-1.295-0.236-0.285-0.847-0.566-1.359-0.625l-0.933-0.108-0.091-12.866c-0.051-7.123-0.232-13.005-0.408-13.182-0.355-0.354-9.292-0.527-9.837-0.189zM193.971 2.343c-0.298 0.778 0.849 1.485 2.408 1.485h1.325v7.966l-1.48-0.845c-1.984-1.135-5.605-1.194-7.808-0.128-5.459 2.643-7.294 12.52-3.24 17.44 2.831 3.434 7.82 3.608 11.048 0.384l1.48-1.477v1.514c0 1.822 0.621 2.483 1.996 2.12 0.529-0.14 2.607-0.354 4.616-0.475 3.608-0.217 3.655-0.231 3.655-1.090 0-0.792-0.15-0.879-1.652-0.977l-1.654-0.106v-26.328l-5.243-0.013c-4.436-0.012-5.277 0.071-5.452 0.529zM80.497 10.355c-0.3 0.783 0.195 1.428 1.187 1.541 0.913 0.106 1.029 0.317 1.881 3.419 1.086 3.955 2.048 6.403 3.64 9.263 1.716 3.082 4.952 7.097 5.718 7.097 1.315 0 6.477-9.477 8.552-15.704l1.231-3.695 1.467-0.31c1.243-0.263 1.465-0.44 1.465-1.167v-0.857l-3.944-0.012c-2.813-0.007-4.052 0.12-4.318 0.44-0.519 0.625 0.126 1.206 1.821 1.639l1.363 0.349-0.876 2.611c-0.48 1.435-1.651 4.241-2.6 6.235l-1.725 3.626-1.032-1.629c-0.492-0.757-1.054-1.715-1.581-2.695l-0.115-0.234c-1.032-2.033-2.872-7.473-2.686-7.953 0.091-0.239 0.605-0.483 1.144-0.546 0.77-0.088 0.977-0.291 0.977-0.95v-0.835l-5.699-0.034c-4.264-0.025-5.743 0.076-5.868 0.401zM63.464 10.718c-2.599 0.928-4.101 2.225-5.223 4.507-0.859 1.748-0.984 2.403-0.984 5.137 0 3.581 0.679 5.42 2.816 7.619 2.984 3.072 8.019 4.184 12.056 2.661 2.073-0.783 3.501-2.131 3.171-2.993-0.227-0.589-1.366-0.667-1.706-0.116-0.404 0.653-3.047 1.689-4.328 1.696-2.447 0.012-4.458-2.12-5.068-5.373-0.222-1.184-0.18-1.317 0.349-1.115 2.429 0.933 9.184 0.339 11.205-0.987 0.712-0.467 0.824-0.817 0.824-2.605 0-3.815-1.597-6.708-4.525-8.207-1.812-0.926-6.291-1.044-8.586-0.224zM135.050 10.393c-1.917 0.408-4.835 2.159-6.141 3.683-1.448 1.691-2.488 4.839-1.851 5.605 0.926 1.117 1.715 0.406 2.23-2.011 0.266-1.24 2.003-3.2 3.32-3.746 1.585-0.655 3.416-0.157 4.913 1.341 1.194 1.194 2.425 3.971 1.965 4.433-0.111 0.111-1.4 0.35-2.86 0.532-7.264 0.901-11.49 4.979-9.384 9.053 0.596 1.152 2.848 2.371 4.403 2.383 1.757 0.015 4.886-1.438 6.653-3.089l1.715-1.602-0.243 1.765c-0.307 2.247 0.138 2.727 2.043 2.2 0.726-0.2 2.909-0.47 4.851-0.598 3.471-0.231 3.53-0.249 3.53-1.105 0-0.792-0.15-0.879-1.654-0.977l-1.654-0.106-0.012-3.2c-0.022-5.664-1.189-10.11-3.247-12.371-1.686-1.854-5.538-2.838-8.576-2.191zM43.335 11.35c-0.574 0.315-1.3 0.795-1.612 1.066-0.502 0.438-0.593 0.394-0.79-0.391l-0.222-0.888h-5.224c-4.424 0-5.258 0.084-5.435 0.546-0.312 0.812 0.33 1.253 2.115 1.453l1.597 0.18v14.877h-1.068c-1.31 0-2.413 0.554-2.413 1.213 0 0.815 0.999 1.122 2.723 0.837 2.139-0.352 7.168-0.352 8.989 0 1.543 0.3 2.558-0.032 2.558-0.837 0-0.659-1.101-1.213-2.413-1.213h-1.066l0.002-4.96c0.002-5.871 0.328-7.286 2.083-9.043 1.162-1.16 1.509-1.312 3.008-1.307 0.931 0.003 1.928 0.157 2.216 0.342 0.423 0.275 0.374 0.339-0.256 0.344-0.428 0.003-1.285 0.458-1.907 1.014-0.935 0.834-1.128 1.261-1.128 2.472 0 2.796 3.306 4.49 5.459 2.796 2.503-1.969 2.070-5.945-0.888-8.153-1.273-0.952-4.866-1.149-6.328-0.349zM166.833 11.468c-0.802 0.364-1.821 1.080-2.262 1.592l-0.803 0.928-0.175-1.319-0.173-1.32-10.442-0.035v0.869c0 0.79 0.162 0.888 1.74 1.044l1.741 0.175 0.093 7.51 0.094 7.512-1.661 0.32c-1.452 0.281-1.659 0.429-1.659 1.191 0 0.756 0.138 0.859 1.044 0.78 0.574-0.051 3.315-0.104 6.090-0.12 3.165-0.019 5.132-0.167 5.277-0.399 0.394-0.638-0.072-1.253-1.128-1.485l-1.016-0.222v-4.952c0-4.635 0.059-5.066 0.906-6.769 1.137-2.28 2.781-3.571 4.849-3.803 2.856-0.322 4.057 1.661 4.049 6.68-0.005 2.858-0.547 7.587-0.943 8.229-0.088 0.141-0.935 0.364-1.881 0.493-1.923 0.264-2.777 0.933-2.152 1.686 0.515 0.621 9.386 0.376 10.078-0.278 0.783-0.741-0.419-1.58-2.264-1.58h-1.58l0.211-1.132c1.928-10.292 0.084-16.283-5.007-16.263-0.861 0.003-2.221 0.305-3.025 0.669zM70.548 12.554c2.215 0.839 3.917 3.493 3.931 6.127l0.008 1.452-2.419 0.549c-2.867 0.652-3.907 0.679-6.311 0.163l-1.802-0.386 0.194-1.891c0.254-2.456 1.393-4.77 2.787-5.662 1.251-0.802 2.184-0.893 3.611-0.352zM195.254 12.697c1.952 1.009 2.451 2.070 2.451 5.213 0 3.315-0.603 5.622-2.070 7.934-2.872 4.529-8.067 3.988-9.987-1.036-0.414-1.083-0.522-2.24-0.409-4.382 0.189-3.597 1.462-6.213 3.626-7.454 1.62-0.93 4.854-1.068 6.39-0.275zM139.924 22.722c0 2.425-5.209 6.85-8.076 6.861-2.464 0.008-3.597-1.58-2.609-3.656 0.911-1.91 5.504-3.778 9.728-3.958 0.775-0.032 0.957 0.109 0.957 0.753z"></path>
</symbol>
<symbol id="icon-mark" viewBox="0 0 22 32">
<path fill="#fc1200" style="fill: var(--color3, #fc1200)" d="M10.138 0.022c-2.172 0.174-4.154 0.882-5.794 2.070-0.92 0.679-1.709 1.462-2.373 2.345l-0.021 0.029c-0.716 0.979-1.274 2.126-1.606 3.366l-0.016 0.072c-0.556 2.184-0.39 4.26 0.574 7.126 1.11 3.298 3.366 7.504 6.402 11.934 1.252 1.828 1.96 2.778 2.22 2.974 0.828 0.634 2 0.602 2.75-0.072 0.302-0.272 1.32-1.674 2.594-3.576 3.906-5.828 6.194-10.73 6.728-14.41 0.64-4.4-1.63-8.638-5.72-10.684-1.059-0.546-2.291-0.936-3.593-1.102l-0.055-0.006c-0.4-0.052-1.74-0.094-2.090-0.066zM11.928 6.65c1.896 0.501 3.272 2.201 3.272 4.222 0 0.381-0.049 0.75-0.141 1.102l0.007-0.030c-0.465 1.735-1.927 3.028-3.72 3.236l-0.020 0.002c-1.77 0.206-3.544-0.764-4.36-2.386-0.294-0.584-0.404-1.048-0.428-1.796-0.016-0.526-0.008-0.656 0.062-0.99 0.367-1.751 1.74-3.101 3.475-3.428l0.027-0.004c0.172-0.034 0.452-0.044 0.862-0.036 0.502 0.010 0.664 0.028 0.964 0.108zM10.388 8.746c-0.752 0.185-1.344 0.732-1.591 1.44l-0.005 0.016c-0.11 0.352-0.118 0.97-0.014 1.274 0.32 0.942 1.108 1.54 2.040 1.548 0.712 0.008 1.348-0.298 1.764-0.85 0.3-0.4 0.44-0.816 0.438-1.318 0-0.014 0.001-0.031 0.001-0.048 0-0.575-0.24-1.094-0.626-1.462l-0.001-0.001c-0.39-0.402-0.935-0.652-1.538-0.652-0.166 0-0.327 0.019-0.482 0.054l0.014-0.003z"></path>
</symbol>
<symbol id="icon-star" viewBox="0 0 35 32">
<path fill="#ffc700" style="fill: var(--color4, #ffc700)" d="M17.16 0.219c-0.24 0.061-0.435 0.259-0.547 0.56 0.763-2.85 0.17-1.081-0.416 0.691l-1.326 4.63c-0.894 2.76-1.67 5.090-1.722 5.179-0.086 0.118-0.198 0.212-0.328 0.276l-0.005 0.002c-0.234 0.114-0.379 0.117-5.861 0.117-5.555 0-5.624 0.002-5.814 0.118-0.136 0.092-0.239 0.224-0.293 0.379l-0.002 0.005c-0.134 0.352-0.050 0.654 0.256 0.906 0.12 0.099 2.17 1.598 4.554 3.331 2.386 1.733 4.392 3.226 4.459 3.317 0.080 0.107 0.122 0.251 0.118 0.411-0.002 0.154-0.634 2.181-1.715 5.501-0.942 2.891-1.714 5.315-1.714 5.389 0 0.398 0.389 0.765 0.811 0.765 0.298 0-0.010 0.211 5.082-3.486 0.165-0.163 1.559-1.178 2.959-2.186l1.322-0.905c0.111-0.066 0.245-0.105 0.389-0.105 0.126 0 0.244 0.030 0.349 0.084l-0.004-0.002c0.091 0.046 2.062 1.462 4.382 3.147 5.181 3.762 4.736 3.454 5.019 3.454 0.448 0 0.811-0.336 0.811-0.752 0-0.107-0.765-2.55-1.701-5.427-1.206-3.712-1.701-5.31-1.701-5.498 0-0.206 0.035-0.307 0.162-0.451 0.088-0.102 2.114-1.602 4.502-3.331 2.387-1.731 4.429-3.232 4.536-3.338 0.354-0.349 0.294-0.955-0.118-1.206-0.19-0.117-0.28-0.118-5.826-0.118-5.246 0-5.646-0.008-5.834-0.104-0.122-0.065-0.225-0.149-0.309-0.25l-0.001-0.002c-0.061-0.082-0.885-2.533-1.832-5.445-0.965-2.968-1.77-5.349-1.83-5.418-0.151-0.163-0.366-0.265-0.605-0.265-0.074 0-0.146 0.010-0.214 0.028l0.006-0.001z"></path>
</symbol>
<symbol id="icon-twiter" viewBox="0 0 32 32">
<path d="M13.52 0.032c-2.688 0.098-4.971 0.243-7.048 0.448-1.531 0.152-1.906 0.246-2.792 0.699-1.485 0.766-2.579 2.117-2.985 3.739l-0.008 0.040c-0.162 0.634-0.418 3.446-0.59 6.482-0.091 1.611-0.091 7.528 0 9.12 0.147 2.582 0.386 5.403 0.518 6.138 0.407 2.124 1.913 3.818 3.891 4.487l0.041 0.012c0.723 0.238 0.872 0.243 6.008 0.229l4.875-0.014-0.256-0.272 0.933 0.030c0.514 0.018 1.546 0.043 2.293 0.056 3.232 0.061 5.446 0.107 7.31 0.158 0.221 0.005 0.429 0.026 0.461 0.046 0.085 0.053 0.886-0.099 1.331-0.251 1.772-0.615 3.134-2.003 3.7-3.75l0.012-0.042c0.198-0.632 0.293-1.357 0.464-3.6 0.36-4.726 0.414-9.381 0.158-13.467-0.162-2.576-0.379-4.795-0.528-5.378-0.347-1.324-1.101-2.437-2.118-3.228l-0.013-0.010c-0.655-0.478-1.425-0.844-2.259-1.051l-0.045-0.010c-0.549-0.12-3.605-0.381-5.986-0.512-1.338-0.074-6.261-0.141-7.368-0.099zM20.896 8.059c0.498 0.125 1.176 0.478 1.586 0.824l0.322 0.272 0.339-0.069c0.633-0.142 1.191-0.344 1.712-0.606l-0.042 0.019c0.256-0.128 0.477-0.232 0.493-0.232 0.064 0 0.016 0.16-0.158 0.523-0.263 0.577-0.643 1.060-1.112 1.436l-0.008 0.006-0.214 0.174 0.214-0.035c0.603-0.11 1.128-0.252 1.635-0.435l-0.070 0.022c0.181-0.074 0.328-0.12 0.328-0.106 0 0.016-0.138 0.222-0.307 0.459-0.333 0.469-1.168 1.342-1.434 1.499l-0.166 0.098-0.035 0.752c-0.155 3.296-1.299 5.907-3.558 8.123-1.966 1.928-4.475 3.058-7.291 3.278-1.717 0.136-3.83-0.202-5.283-0.843l-0.29-0.128-0.165 0.147c-0.15 0.136-0.154 0.138-0.043 0.011 0.168-0.192 0.149-0.258-0.027-0.090l-0.147 0.139-0.509-0.496-0.509-0.494 0.909-0.032c1.269-0.043 2.216-0.259 3.296-0.752 0.373-0.17 1.442-0.832 1.502-0.931 0.014-0.022-0.155-0.070-0.378-0.104-0.303-0.053-0.565-0.121-0.82-0.207l0.039 0.011c-0.302-0.104-0.394-0.118-0.458-0.066-0.067 0.054-0.074 0.048-0.043-0.034 0.026-0.066 0.016-0.090-0.030-0.075-0.093 0.032-0.917-0.709-1.25-1.123-0.272-0.339-0.563-0.864-0.63-1.136l-0.034-0.139 0.523 0.022 0.525 0.021-0.862-0.842c-0.899-0.882-1.099-1.131-1.357-1.701-0.224-0.491-0.451-1.622-0.328-1.622 0.026 0 0.141 0.046 0.256 0.101 0.117 0.056 0.342 0.141 0.504 0.187 0.291 0.083 0.97 0.195 1.005 0.163-0.121-0.146-0.247-0.278-0.384-0.398l-0.004-0.003c-0.514-0.466-0.905-1.058-1.125-1.728l-0.008-0.028c-0.13-0.394-0.154-1.395-0.048-1.922 0.083-0.405 0.378-1.278 0.434-1.278 0.011 0 0.339 0.32 0.73 0.709 0.932 0.963 2.031 1.757 3.252 2.336l0.068 0.029c1.015 0.504 2.193 0.867 3.436 1.025l0.055 0.006c0.25 0.032 0.546 0.056 0.658 0.056 0.205 0 0.206 0 0.168-0.173-0.058-0.258-0.042-1.034 0.029-1.427 0.251-1.397 1.358-2.659 2.734-3.118 0.393-0.133 0.846-0.209 1.317-0.209 0.376 0 0.741 0.049 1.089 0.141l-0.030-0.007zM26.333 31.392c-0.018 0.018-0.064 0.019-0.102 0.005-0.043-0.018-0.030-0.030 0.032-0.032 0.056-0.003 0.088 0.010 0.070 0.027zM6.23 31.502c0.038 0.016 0.085 0.014 0.102-0.003s-0.014-0.030-0.070-0.029c-0.062 0.003-0.075 0.016-0.032 0.032zM25.696 31.502c0.038 0.016 0.085 0.014 0.102-0.003s-0.013-0.030-0.069-0.029c-0.062 0.003-0.075 0.016-0.034 0.032zM6.763 31.557c0.038 0.014 0.085 0.013 0.102-0.005s-0.014-0.030-0.070-0.027c-0.062 0.002-0.075 0.014-0.032 0.032zM25.163 31.557c0.038 0.014 0.085 0.013 0.102-0.005s-0.014-0.030-0.070-0.027c-0.062 0.002-0.075 0.014-0.032 0.032zM7.35 31.61c0.038 0.016 0.085 0.014 0.102-0.005 0.018-0.018-0.014-0.029-0.070-0.027-0.062 0.003-0.075 0.014-0.032 0.032zM24.576 31.61c0.038 0.016 0.085 0.014 0.102-0.005 0.018-0.018-0.013-0.029-0.069-0.027-0.062 0.003-0.075 0.014-0.034 0.032zM7.933 31.662c0.020 0.007 0.043 0.011 0.067 0.011s0.047-0.004 0.069-0.011l-0.002 0c0.037-0.016 0.006-0.027-0.067-0.027s-0.104 0.011-0.067 0.027zM23.933 31.662c0.020 0.007 0.043 0.011 0.067 0.011s0.047-0.004 0.069-0.011l-0.002 0c0.037-0.016 0.006-0.027-0.067-0.027s-0.104 0.011-0.067 0.027zM8.627 31.715c0.020 0.007 0.043 0.011 0.066 0.011s0.047-0.004 0.068-0.011l-0.001 0c0.037-0.014 0.006-0.027-0.067-0.027-0.072 0-0.102 0.013-0.066 0.027zM23.24 31.715c0.020 0.007 0.043 0.011 0.066 0.011s0.047-0.004 0.068-0.011l-0.001 0c0.037-0.014 0.006-0.027-0.066-0.027-0.074 0-0.104 0.013-0.067 0.027zM9.32 31.768c0.037 0.016 0.096 0.016 0.133 0 0.037-0.014 0.006-0.026-0.066-0.026-0.074 0-0.104 0.011-0.067 0.026zM22.547 31.768c0.037 0.016 0.096 0.016 0.133 0 0.037-0.014 0.006-0.026-0.067-0.026-0.072 0-0.102 0.011-0.066 0.026zM10.202 31.824c0.023 0.006 0.050 0.010 0.077 0.010 0.030 0 0.058-0.004 0.085-0.012l-0.002 0.001c0.035-0.016-0.006-0.027-0.094-0.026s-0.118 0.013-0.066 0.027zM21.667 31.824c0.023 0.006 0.050 0.010 0.077 0.010 0.030 0 0.058-0.004 0.085-0.012l-0.002 0.001c0.037-0.016-0.006-0.027-0.094-0.026s-0.117 0.013-0.066 0.027zM11.162 31.877c0.023 0.006 0.050 0.010 0.077 0.010 0.030 0 0.058-0.004 0.085-0.012l-0.002 0.001c0.035-0.014-0.006-0.026-0.094-0.026-0.088 0.002-0.118 0.014-0.066 0.027zM20.707 31.877c0.023 0.006 0.050 0.010 0.077 0.010 0.030 0 0.058-0.004 0.085-0.012l-0.002 0.001c0.037-0.014-0.006-0.026-0.094-0.026-0.088 0.002-0.117 0.014-0.066 0.027zM12.36 31.931c0.036 0.006 0.078 0.010 0.12 0.010s0.084-0.003 0.124-0.010l-0.004 0.001c0.066-0.013 0.011-0.024-0.12-0.024s-0.186 0.011-0.12 0.024zM19.454 31.931c0.031 0.006 0.066 0.009 0.102 0.009 0.039 0 0.077-0.004 0.114-0.012l-0.004 0.001c0.051-0.013-0.003-0.024-0.12-0.022-0.118 0-0.16 0.011-0.093 0.024zM14.362 31.986c0.141 0.011 0.357 0.011 0.48 0s0.010-0.021-0.254-0.021c-0.264 0.002-0.366 0.010-0.226 0.021zM17.189 31.986c0.139 0.011 0.355 0.011 0.48 0 0.123-0.011 0.008-0.021-0.256-0.021-0.264 0.002-0.365 0.010-0.224 0.021z"></path>
</symbol>
</defs>
</svg>
