<svg aria-hidden="true" style="position: absolute; width: 0; height: 0; overflow: hidden;" version="1.1" xmlns="http://www.w3.org/2000/svg" xmlns:xlink="http://www.w3.org/1999/xlink">
<defs>
<symbol id="icon-google" viewBox="0 0 32 32">
<path fill="#273b7a" style="fill: var(--color1, #273b7a)" d="M16 32c8.836 0 16-7.164 16-16s-7.164-16-16-16c-8.837 0-16 7.163-16 16s7.163 16 16 16z"></path>
<path fill="#121149" style="fill: var(--color2, #121149)" d="M31.64 19.385l-9.783-9.783-8.156 0.651-4.166 3.803 0.535 8.273 9.263 9.322c6.144-1.302 10.985-6.129 12.307-12.266z"></path>
<path fill="#4285f4" style="fill: var(--color3, #4285f4)" d="M16.349 14.529v3.066h4.795c-0.68 2.195-2.725 3.789-5.144 3.789-2.974 0-5.384-2.411-5.384-5.384s2.41-5.384 5.384-5.384c1.39 0 2.652 0.531 3.608 1.395l2.25-2.409c-1.543-1.414-3.599-2.277-5.857-2.277-4.791 0-8.675 3.884-8.675 8.674s3.884 8.674 8.675 8.674c4.791 0 8.675-3.884 8.675-8.674 0-0.502-0.046-0.992-0.129-1.471h-8.197z"></path>
<path fill="#ea4335" style="fill: var(--color4, #ea4335)" d="M16 10.615c1.39 0 2.652 0.531 3.608 1.395l2.25-2.409c-1.543-1.414-3.599-2.277-5.857-2.277-3.322 0-6.207 1.869-7.664 4.611l2.647 2.12c0.78-2.012 2.729-3.441 5.017-3.441z"></path>
<path fill="#fbbc05" style="fill: var(--color5, #fbbc05)" d="M10.616 16.001c0-0.686 0.133-1.34 0.367-1.943l-2.647-2.12c-0.644 1.212-1.010 2.595-1.010 4.063 0 1.475 0.369 2.864 1.019 4.080l2.632-2.156c-0.229-0.598-0.36-1.245-0.36-1.924z"></path>
<path fill="#34a853" style="fill: var(--color6, #34a853)" d="M18.994 20.473c-0.856 0.575-1.884 0.913-2.993 0.913-2.295 0-4.249-1.438-5.024-3.46l-2.632 2.156c1.46 2.733 4.34 4.594 7.655 4.594 2.153 0 4.121-0.786 5.638-2.085l-2.644-2.118z"></path>
<path fill="#4285f4" style="fill: var(--color3, #4285f4)" d="M24.675 16c0-0.502-0.046-0.992-0.129-1.471h-8.197v3.066h4.795c-0.368 1.188-1.139 2.198-2.15 2.876l2.644 2.118c1.858-1.591 3.037-3.952 3.037-6.59z"></path>
</symbol>
<symbol id="icon-twiter" viewBox="0 0 32 32">
<path d="M26.276 31.452c-6.844 0.73-13.709 0.73-20.553 0-2.729-0.291-4.885-2.447-5.176-5.176-0.73-6.844-0.73-13.709 0-20.553 0.291-2.729 2.447-4.885 5.176-5.176 6.844-0.73 13.709-0.73 20.553 0 2.729 0.291 4.885 2.447 5.176 5.176 0.73 6.844 0.73 13.709 0 20.553-0.291 2.729-2.447 4.885-5.176 5.176z"></path>
<path d="M29.712 6.881c-0.258-2.422-2.171-4.334-4.593-4.593-6.073-0.648-12.164-0.648-18.238 0-2.422 0.259-4.334 2.171-4.593 4.593-0.648 6.073-0.648 12.164 0 18.238 0.259 2.422 2.171 4.335 4.593 4.593 6.073 0.648 12.165 0.648 18.238 0 2.422-0.258 4.335-2.171 4.593-4.593 0.648-6.073 0.648-12.164 0-18.238z"></path>
<path d="M0.48 25.613c0.022 0.221 0.045 0.442 0.068 0.664 0.291 2.729 2.447 4.884 5.176 5.176 6.844 0.73 13.709 0.73 20.553 0 2.729-0.291 4.884-2.447 5.176-5.176 0.024-0.221 0.046-0.442 0.069-0.664h-31.041z"></path>
<path d="M31.993 14.875l-6.642-6.642c-0.744 0.426-1.4 0.662-1.895 0.792-0.278 0.074-0.505 0.115-0.668 0.137-0.749-0.768-1.795-1.245-2.953-1.245-2.278 0-4.125 1.847-4.125 4.125 0 0.082 0.002 0.164 0.008 0.245 0.011 0.198 0.036 0.392 0.075 0.58-0.951-0.014-4.042-0.268-6.989-2.795-0 0-0-0-0-0h-0l-1.39-1.39c0 0-1.631 2.846 0.767 5.006 0.105 0.117 0.221 0.233 0.348 0.347 0.010 0.011 0.021 0.022 0.030 0.033-0.315-0.021-1.261-0.115-1.809-0.502 0 0-0.11 1.74 1.339 3.020l1.17 1.18c-0.356 0.029-0.751 0.022-1.025-0.098 0 0 0.243 1.030 1.181 1.855l1.64 1.648c-0.984 0.573-2.706 1.29-4.972 1.107l9.946 9.719c3.418-0.001 6.835-0.184 10.247-0.548 2.729-0.291 4.885-2.447 5.176-5.176 0.405-3.796 0.585-7.599 0.541-11.401z"></path>
<path d="M25.917 9.835c-0.708 0.37-1.774 0.541-2.128 0.591-0.003-0.017-0.006-0.033-0.009-0.050 1.202-0.743 1.57-2.143 1.57-2.143-0.744 0.426-1.4 0.662-1.895 0.792-0.278 0.074-0.505 0.115-0.668 0.137-0.749-0.768-1.795-1.245-2.953-1.245-2.278 0-4.125 1.846-4.125 4.125 0 0.082 0.002 0.164 0.008 0.244 0.011 0.197 0.036 0.392 0.075 0.58-1.103-0.016-5.082-0.354-8.38-4.185 0 0-1.836 3.204 1.251 5.393 0 0-1.251-0.039-1.915-0.508 0 0-0.195 3.087 3.361 4.064 0 0-1.25 0.313-1.876 0.039 0 0 0.626 2.657 3.752 2.853 0 0-2.242 2.053-5.904 1.757 1.801 1.14 3.936 1.8 6.225 1.8 6.436 0 11.654-5.218 11.654-11.654 0-0.080-0.001-0.161-0.002-0.241 0.002-0.048 0.002-0.095 0.002-0.143 0-0.033-0.001-0.067-0.001-0.1 1.19-0.793 1.958-2.108 1.958-2.108z"></path>
</symbol>
<symbol id="icon-instagram" viewBox="0 0 32 32">
<path fill="#000" style="fill: var(--color7, #000)" d="M31.452 5.723c-0.291-2.729-2.447-4.885-5.176-5.176-6.844-0.73-13.708-0.73-20.552 0-2.729 0.291-4.885 2.447-5.176 5.176-0.73 6.844-0.73 13.708 0 20.552 0.291 2.729 2.447 4.885 5.176 5.176 6.844 0.73 13.709 0.73 20.553 0 2.729-0.291 4.885-2.447 5.176-5.176 0.73-6.844 0.73-13.708 0-20.552z"></path>
<path fill="#000" style="fill: var(--color7, #000)" d="M29.712 6.881c-0.258-2.422-2.171-4.334-4.593-4.593-6.073-0.648-12.164-0.648-18.238 0-2.422 0.259-4.334 2.171-4.593 4.593-0.648 6.073-0.648 12.164 0 18.237 0.259 2.422 2.171 4.335 4.593 4.593 6.073 0.648 12.165 0.648 18.238 0 2.422-0.258 4.335-2.171 4.593-4.593 0.648-6.073 0.648-12.164 0-18.237z"></path>
<path fill="#000" style="fill: var(--color7, #000)" d="M0.479 25.611c0.022 0.221 0.045 0.442 0.068 0.664 0.291 2.729 2.447 4.884 5.176 5.176 6.844 0.731 13.709 0.731 20.553 0 2.729-0.291 4.884-2.447 5.176-5.176 0.024-0.221 0.046-0.442 0.069-0.664h-31.041z"></path>
<path fill="#000" style="fill: var(--color7, #000)" d="M31.452 26.276c0.393-3.677 0.574-7.36 0.544-11.043l-7.315-7.314c-0.914-1.043-2.248-1.694-3.817-1.751-3.225-0.116-6.461-0.11-9.687 0-2.679 0.092-4.553 1.893-5.033 4.54-0.085 0.467-0.136 0.941-0.202 1.411v7.759c0.037 0.251 0.091 0.502 0.108 0.755 0.107 1.61 0.769 2.989 1.828 3.921l7.443 7.443c3.653 0.026 7.306-0.156 10.954-0.545 2.729-0.291 4.885-2.447 5.176-5.176z"></path>
<path fill="#000" style="fill: var(--color7, #000)" d="M31.452 26.273c-0.291 2.729-2.447 4.885-5.176 5.176-3.647 0.389-7.301 0.571-10.953 0.545l-7.432-7.432c0.862 0.754 1.985 1.213 3.288 1.262 3.225 0.121 6.461 0.118 9.687 0.002 2.917-0.105 5.028-2.264 5.119-5.181 0.097-3.097 0.097-6.202 0-9.299-0.041-1.346-0.514-2.53-1.297-3.426l7.31 7.31c0.029 3.682-0.152 7.366-0.545 11.043z"></path>
<path fill="#000" style="fill: var(--color7, #000)" d="M19.776 12.535c-0.937-1.020-2.281-1.66-3.776-1.66-2.831 0-5.125 2.295-5.125 5.125 0 1.494 0.64 2.839 1.66 3.776l11.859 11.858c0.628-0.055 1.255-0.116 1.883-0.182 2.729-0.291 4.885-2.447 5.176-5.176 0.067-0.627 0.128-1.255 0.182-1.883l-11.859-11.858z"></path>
<path fill="#000" style="fill: var(--color7, #000)" d="M31.938 19.446l-9.544-9.543c-0.223-0.292-0.574-0.482-0.969-0.482-0.673 0-1.22 0.546-1.22 1.219 0 0.396 0.19 0.747 0.482 0.969l11.080 11.080c0.075-1.081 0.132-2.162 0.171-3.243z"></path>
<path fill="#000" style="fill: var(--color7, #000)" d="M5.943 12.12c0.067-0.471 0.117-0.944 0.202-1.411 0.48-2.647 2.354-4.447 5.033-4.54 3.226-0.111 6.461-0.117 9.687-0 2.916 0.105 5.028 2.264 5.119 5.181 0.097 3.097 0.097 6.202 0 9.299-0.091 2.917-2.202 5.076-5.119 5.181-3.225 0.116-6.462 0.119-9.687-0.002-2.916-0.11-4.933-2.274-5.128-5.195-0.017-0.253-0.071-0.503-0.108-0.755 0-2.586 0-5.173 0-7.759zM16.003 24.101c1.476 0 2.954 0.044 4.428-0.010 2.311-0.086 3.733-1.465 3.787-3.774 0.067-2.877 0.067-5.758 0-8.635-0.054-2.309-1.476-3.72-3.787-3.769-2.932-0.062-5.868-0.062-8.8 0-2.293 0.048-3.719 1.431-3.781 3.714-0.079 2.913-0.079 5.832 0 8.746 0.062 2.283 1.488 3.634 3.781 3.719 1.456 0.054 2.915 0.010 4.372 0.010z"></path>
<path fill="#fff" style="fill: var(--color8, #fff)" d="M5.943 12.12c0.067-0.471 0.117-0.944 0.202-1.411 0.48-2.647 2.354-4.447 5.033-4.54 3.226-0.111 6.461-0.117 9.687-0 2.916 0.105 5.028 2.264 5.119 5.181 0.097 3.097 0.097 6.202 0 9.299-0.091 2.917-2.202 5.076-5.119 5.181-3.225 0.116-6.462 0.119-9.687-0.002-2.916-0.11-4.933-2.274-5.128-5.195-0.017-0.253-0.071-0.503-0.108-0.755 0-2.586 0-5.173 0-7.759zM16.003 24.101c1.476 0 2.954 0.044 4.428-0.010 2.311-0.086 3.733-1.465 3.787-3.774 0.067-2.877 0.067-5.758 0-8.635-0.054-2.309-1.476-3.72-3.787-3.769-2.932-0.062-5.868-0.062-8.8 0-2.293 0.048-3.719 1.431-3.781 3.714-0.079 2.913-0.079 5.832 0 8.746 0.062 2.283 1.488 3.634 3.781 3.719 1.456 0.054 2.915 0.010 4.372 0.010z"></path>
<path fill="#fff" style="fill: var(--color8, #fff)" d="M16 10.874c-2.831 0-5.125 2.295-5.125 5.125s2.295 5.125 5.125 5.125c2.831 0 5.125-2.295 5.125-5.125s-2.295-5.125-5.125-5.125zM16 19.36c-1.856 0-3.361-1.504-3.361-3.361s1.505-3.361 3.361-3.361c1.856 0 3.361 1.505 3.361 3.361s-1.505 3.361-3.361 3.361z"></path>
<path fill="#fff" style="fill: var(--color8, #fff)" d="M22.644 10.639c0 0.673-0.546 1.219-1.219 1.219s-1.22-0.546-1.22-1.219c0-0.674 0.546-1.219 1.22-1.219s1.219 0.546 1.219 1.219z"></path>
</symbol>
<symbol id="icon-facebook" viewBox="0 0 32 32">
<path fill="#3b5999" style="fill: var(--color9, #3b5999)" d="M28 0h-24c-2.207 0-4 1.793-4 4v24c0 2.205 1.793 4 4 4h24c2.205 0 4-1.795 4-4v-24c0-2.207-1.795-4-4-4z"></path>
<path fill="#fff" style="fill: var(--color8, #fff)" d="M22 16v-4c0-1.104 0.896-1 2-1h2v-5h-4c-3.315 0-6 2.685-6 6v4h-4v5h4v11h6v-11h3l2-5h-5z"></path>
</symbol>
<symbol id="icon-arrow" viewBox="0 0 37 32">
<path stroke-linejoin="round" stroke-linecap="round" stroke-miterlimit="4" stroke-width="5.3333" d="M16 29.333l-13.333-13.333 13.333-13.333"></path>
<path stroke-linejoin="round" stroke-linecap="round" stroke-miterlimit="4" stroke-width="5.3333" d="M34.667 29.333l-13.333-13.333 13.333-13.333"></path>
</symbol>
<symbol id="icon-star" viewBox="0 0 35 32">
<path fill="#ffc700" style="fill: var(--color10, #ffc700)" d="M16.613 0.742c0.239-0.737 1.282-0.737 1.522 0l3.37 10.372c0.107 0.33 0.414 0.553 0.761 0.553h10.906c0.775 0 1.097 0.992 0.47 1.447l-8.823 6.411c-0.28 0.204-0.398 0.565-0.291 0.894l3.37 10.372c0.24 0.737-0.604 1.35-1.231 0.894l-8.823-6.411c-0.28-0.204-0.66-0.204-0.94 0l-8.823 6.411c-0.627 0.456-1.471-0.157-1.231-0.894l3.37-10.372c0.107-0.33-0.010-0.691-0.291-0.894l-8.823-6.411c-0.627-0.456-0.305-1.447 0.47-1.447h10.906c0.347 0 0.654-0.223 0.761-0.553l3.37-10.372z"></path>
</symbol>
<symbol id="icon-mark" viewBox="0 0 22 32">
<path fill="#fc1200" style="fill: var(--color11, #fc1200)" d="M10.86 13.031c1.199 0 2.172-0.972 2.172-2.172s-0.972-2.172-2.172-2.172c-1.199 0-2.172 0.972-2.172 2.172s0.972 2.172 2.172 2.172z"></path>
<path fill="#fc1200" style="fill: var(--color11, #fc1200)" d="M10.858 0c-5.987 0-10.858 4.659-10.858 10.383 0 2.726 1.243 6.351 3.693 10.775 1.968 3.552 4.245 6.764 5.429 8.362 0.2 0.273 0.462 0.495 0.764 0.648s0.636 0.233 0.974 0.233c0.339 0 0.672-0.080 0.974-0.233s0.564-0.375 0.764-0.648c1.182-1.598 3.461-4.81 5.429-8.362 2.447-4.423 3.689-8.048 3.689-10.775 0-5.724-4.871-10.383-10.858-10.383zM10.858 15.202c-0.859 0-1.699-0.255-2.413-0.732s-1.271-1.156-1.6-1.949c-0.329-0.794-0.415-1.667-0.247-2.509s0.581-1.616 1.189-2.224c0.607-0.607 1.381-1.021 2.224-1.189s1.716-0.082 2.509 0.247c0.794 0.329 1.472 0.885 1.949 1.6s0.732 1.554 0.732 2.413c-0.001 1.152-0.459 2.256-1.274 3.070s-1.918 1.272-3.070 1.274z"></path>
</symbol>
<symbol id="icon-logo" viewBox="0 0 209 32">
<path d="M26.033 9.454c0 0.039 0.007 0.092 0.020 0.158 0.013 0.053 0.020 0.112 0.020 0.178 0 0.276-0.112 0.52-0.336 0.73-0.211 0.211-0.447 0.316-0.71 0.316-0.211 0-0.408-0.066-0.592-0.197-0.171-0.132-0.296-0.309-0.375-0.533-0.171-0.5-0.336-1.033-0.493-1.599-0.158-0.579-0.303-1.145-0.434-1.697-0.118-0.553-0.23-1.072-0.335-1.559s-0.184-0.901-0.237-1.243c-0.75 0.039-1.605 0.072-2.566 0.099-0.96 0.013-1.993 0.020-3.099 0.020l-0.651 24.375c1.079 0.039 2.118 0.118 3.118 0.237 0.29 0.026 0.513 0.138 0.671 0.335 0.171 0.184 0.257 0.408 0.257 0.671 0 0.329-0.112 0.585-0.335 0.77-0.211 0.197-0.434 0.296-0.671 0.296h-0.118c-1.066-0.132-2.118-0.224-3.158-0.276-1.039-0.039-2.079-0.059-3.118-0.059-1.053 0-2.086 0.020-3.099 0.059-1.013 0.053-2.026 0.145-3.039 0.276h-0.118c-0.289 0-0.539-0.112-0.75-0.335-0.197-0.224-0.296-0.467-0.296-0.73s0.086-0.487 0.257-0.671c0.184-0.197 0.408-0.309 0.671-0.335 1.013-0.118 2.007-0.197 2.98-0.237l0.454-24.493c-1.118-0.039-2.171-0.086-3.158-0.138-0.974-0.066-1.849-0.132-2.625-0.197-0.079 0.355-0.178 0.789-0.296 1.303-0.105 0.513-0.23 1.059-0.375 1.638-0.132 0.579-0.27 1.171-0.414 1.776-0.145 0.592-0.296 1.151-0.454 1.678-0.066 0.224-0.191 0.408-0.375 0.553-0.171 0.145-0.368 0.217-0.592 0.217-0.303 0-0.553-0.105-0.75-0.316-0.197-0.224-0.296-0.467-0.296-0.73 0-0.039 0-0.086 0-0.138 0-0.066 0.013-0.118 0.039-0.158 0.197-0.697 0.395-1.461 0.592-2.289s0.375-1.605 0.533-2.329c0.171-0.724 0.309-1.329 0.414-1.816s0.158-0.737 0.158-0.75c0.066-0.25 0.184-0.447 0.355-0.592 0.184-0.145 0.401-0.217 0.651-0.217h0.158c0.684 0.092 1.513 0.171 2.487 0.237 0.987 0.066 2.046 0.125 3.178 0.178 1.145 0.039 2.329 0.072 3.553 0.099s2.421 0.039 3.592 0.039c1.434 0 2.757-0.013 3.967-0.039 1.21-0.039 2.224-0.092 3.040-0.158h0.079c0.237 0 0.454 0.086 0.651 0.257 0.197 0.158 0.316 0.355 0.355 0.592 0 0.013 0.020 0.125 0.059 0.336s0.092 0.493 0.158 0.849 0.145 0.763 0.237 1.224c0.105 0.46 0.217 0.941 0.335 1.441 0.119 0.487 0.244 0.987 0.375 1.5 0.145 0.5 0.296 0.967 0.454 1.401zM48.55 20.526c-0.487 0-0.947-0.092-1.382-0.276-0.421-0.184-0.789-0.434-1.105-0.75s-0.566-0.684-0.75-1.105c-0.184-0.434-0.276-0.895-0.276-1.382s0.092-0.941 0.276-1.362c0.184-0.434 0.434-0.809 0.75-1.125 0.316-0.329 0.684-0.586 1.105-0.77 0.434-0.197 0.895-0.296 1.382-0.296 0.066 0 0.125 0.007 0.178 0.020 0.066 0.013 0.132 0.020 0.197 0.020-0.342-0.263-0.743-0.46-1.204-0.592-0.447-0.145-0.967-0.217-1.559-0.217-0.75 0-1.401 0.158-1.954 0.474-0.553 0.303-1.026 0.691-1.421 1.164-0.381 0.461-0.691 0.967-0.928 1.52-0.237 0.539-0.428 1.053-0.572 1.539-0.132 0.474-0.224 0.882-0.276 1.224-0.040 0.342-0.059 0.539-0.059 0.592l-0.039 8.763c0.46 0.039 0.921 0.099 1.382 0.178 0.474 0.079 0.954 0.158 1.441 0.237 0.25 0.066 0.454 0.197 0.612 0.395 0.158 0.184 0.237 0.401 0.237 0.651 0 0.289-0.112 0.533-0.336 0.73-0.224 0.184-0.46 0.276-0.71 0.276h-0.197c-1.066-0.197-2.079-0.349-3.039-0.454s-1.914-0.158-2.862-0.158c-0.947 0-1.895 0.053-2.842 0.158s-1.954 0.256-3.020 0.454h-0.197c-0.303 0-0.546-0.099-0.73-0.296-0.184-0.211-0.276-0.447-0.276-0.71 0-0.25 0.072-0.467 0.217-0.651 0.145-0.197 0.342-0.329 0.592-0.395 0.461-0.079 0.921-0.158 1.382-0.237s0.915-0.138 1.362-0.178v-14.704c-0.829-0.039-1.526-0.092-2.092-0.158s-0.882-0.112-0.947-0.138c-0.263-0.026-0.48-0.132-0.651-0.316-0.158-0.197-0.237-0.428-0.237-0.691 0-0.329 0.112-0.586 0.335-0.77 0.237-0.184 0.474-0.276 0.711-0.276h0.138c0.013 0.013 0.165 0.039 0.454 0.079 0.289 0.026 0.664 0.059 1.125 0.099s0.987 0.072 1.579 0.099c0.605 0.026 1.217 0.039 1.836 0.039 0.632 0 1.25-0.020 1.855-0.059s1.164-0.112 1.678-0.217c0.026-0.026 0.092-0.039 0.197-0.039 0.303 0 0.553 0.112 0.75 0.336 0.197 0.211 0.296 0.447 0.296 0.711v1.421c0.566-0.789 1.276-1.441 2.132-1.954 0.869-0.526 1.895-0.789 3.079-0.789 0.895 0.026 1.71 0.184 2.447 0.474 0.737 0.276 1.368 0.664 1.895 1.164 0.539 0.487 0.954 1.079 1.243 1.776 0.302 0.684 0.454 1.454 0.454 2.309 0 0.54-0.086 1.059-0.257 1.559s-0.414 0.947-0.73 1.342c-0.316 0.382-0.704 0.691-1.165 0.928-0.447 0.224-0.947 0.335-1.5 0.335zM74.581 19.895v-0.335c0-0.987-0.105-1.901-0.316-2.743s-0.546-1.586-1.006-2.23c-0.447-0.658-1.026-1.197-1.737-1.618s-1.566-0.704-2.566-0.849c-0.697 0.079-1.303 0.27-1.816 0.572s-0.954 0.678-1.322 1.125c-0.355 0.434-0.651 0.928-0.888 1.48s-0.428 1.125-0.572 1.717c-0.132 0.579-0.23 1.164-0.296 1.756-0.066 0.579-0.105 1.125-0.119 1.638 0.211 0.066 0.474 0.138 0.79 0.217 0.329 0.079 0.697 0.158 1.105 0.237 0.408 0.066 0.849 0.125 1.322 0.178 0.487 0.039 0.993 0.059 1.52 0.059 1.118 0 2.165-0.105 3.138-0.316 0.987-0.211 1.908-0.506 2.763-0.888zM76.594 20.664c-0.040 0.342-0.224 0.638-0.553 0.888s-0.743 0.474-1.243 0.671c-0.5 0.184-1.053 0.342-1.658 0.474-0.592 0.118-1.178 0.217-1.757 0.296s-1.112 0.138-1.599 0.178c-0.487 0.026-0.868 0.039-1.145 0.039-0.96 0-1.849-0.066-2.664-0.197-0.803-0.132-1.467-0.27-1.993-0.414 0.079 0.816 0.23 1.618 0.454 2.408s0.546 1.5 0.967 2.132c0.421 0.618 0.947 1.125 1.579 1.52 0.632 0.382 1.395 0.572 2.29 0.572 0.329 0 0.704-0.040 1.125-0.118 0.421-0.092 0.836-0.217 1.243-0.375 0.408-0.171 0.783-0.368 1.125-0.592 0.342-0.237 0.612-0.5 0.809-0.789 0.224-0.263 0.493-0.395 0.809-0.395 0.276 0 0.52 0.112 0.73 0.335 0.211 0.211 0.316 0.448 0.316 0.711 0 0.276-0.086 0.493-0.257 0.651-0.316 0.487-0.757 0.901-1.322 1.243s-1.178 0.618-1.836 0.829c-0.658 0.224-1.322 0.382-1.993 0.474-0.671 0.105-1.283 0.158-1.835 0.158-1.579 0-3.046-0.283-4.401-0.849-1.355-0.553-2.533-1.316-3.533-2.29s-1.789-2.118-2.368-3.434c-0.566-1.316-0.849-2.737-0.849-4.263 0-1.671 0.25-3.158 0.75-4.461 0.5-1.316 1.21-2.421 2.132-3.316 0.921-0.908 2.040-1.592 3.355-2.053 1.316-0.474 2.796-0.711 4.441-0.711 1.553 0.066 2.888 0.329 4.007 0.789 1.132 0.461 2.059 1.099 2.783 1.914s1.257 1.803 1.599 2.961c0.355 1.145 0.533 2.434 0.533 3.868 0 0.329-0.007 0.592-0.020 0.79-0.013 0.184-0.020 0.303-0.020 0.355zM105.881 10.757c0 0.237-0.072 0.447-0.217 0.632s-0.342 0.309-0.592 0.375c-0.447 0.105-0.868 0.191-1.263 0.257-0.395 0.053-0.783 0.099-1.164 0.138-0.316 1.421-0.77 2.941-1.362 4.559-0.579 1.605-1.257 3.244-2.033 4.915-0.776 1.658-1.632 3.303-2.566 4.934-0.921 1.632-1.895 3.178-2.921 4.638-0.079 0.119-0.191 0.224-0.336 0.316-0.132 0.092-0.276 0.138-0.434 0.138-0.184 0-0.342-0.033-0.474-0.099-0.118-0.053-0.23-0.132-0.335-0.237-0.829-0.855-1.704-1.888-2.625-3.099-0.908-1.21-1.796-2.605-2.665-4.184-0.855-1.592-1.645-3.388-2.368-5.388-0.711-2-1.283-4.217-1.717-6.651-0.29-0.039-0.579-0.072-0.869-0.099-0.276-0.026-0.553-0.072-0.829-0.138-0.263-0.039-0.48-0.151-0.651-0.336-0.158-0.184-0.237-0.408-0.237-0.671 0-0.342 0.118-0.599 0.355-0.77 0.237-0.184 0.467-0.276 0.691-0.276 0.026 0 0.046 0.007 0.059 0.020 0.026 0.013 0.059 0.020 0.099 0.020 0.855 0.118 1.684 0.217 2.487 0.296 0.816 0.066 1.632 0.099 2.447 0.099s1.612-0.033 2.388-0.099c0.789-0.079 1.572-0.178 2.349-0.296 0.040 0 0.066-0.007 0.079-0.020 0.026-0.013 0.053-0.020 0.079-0.020 0.303 0 0.553 0.105 0.75 0.316 0.197 0.197 0.296 0.441 0.296 0.73 0 0.237-0.079 0.454-0.237 0.651s-0.362 0.316-0.612 0.355c-0.566 0.118-1.145 0.197-1.737 0.237 0.118 0.592 0.322 1.382 0.612 2.368s0.678 2.099 1.164 3.336c0.29 0.737 0.605 1.454 0.947 2.151 0.355 0.697 0.704 1.355 1.046 1.974 0.355 0.605 0.691 1.158 1.007 1.658 0.329 0.5 0.612 0.928 0.849 1.283 0.592-1.066 1.151-2.145 1.678-3.237 0.526-1.105 1.006-2.191 1.441-3.257 0.447-1.079 0.842-2.132 1.184-3.158s0.632-2.013 0.869-2.961c-0.382-0.039-0.776-0.086-1.184-0.138-0.408-0.066-0.835-0.151-1.283-0.257-0.25-0.039-0.454-0.158-0.612-0.355s-0.237-0.414-0.237-0.651c0-0.303 0.112-0.553 0.335-0.75 0.237-0.197 0.474-0.296 0.711-0.296 0.040 0 0.072 0.007 0.099 0.020s0.059 0.020 0.099 0.020c0.618 0.118 1.178 0.211 1.678 0.276 0.5 0.053 0.993 0.079 1.48 0.079s0.967-0.026 1.441-0.079c0.487-0.066 1.006-0.158 1.559-0.276 0.039 0 0.079-0.007 0.118-0.020s0.079-0.020 0.118-0.020c0.29 0 0.533 0.112 0.73 0.336 0.211 0.211 0.316 0.447 0.316 0.711zM120.681 30.592h-0.197c-0.526-0.092-1.006-0.171-1.441-0.237s-0.849-0.112-1.243-0.138c-0.395-0.039-0.796-0.066-1.204-0.079-0.395-0.013-0.822-0.020-1.283-0.020-0.934 0-1.842 0.039-2.724 0.118-0.882 0.066-1.849 0.197-2.901 0.395h-0.197c-0.329 0-0.579-0.105-0.75-0.316-0.171-0.197-0.257-0.441-0.257-0.73 0-0.237 0.072-0.447 0.217-0.632s0.342-0.309 0.592-0.375c0.487-0.079 0.928-0.138 1.322-0.178 0.395-0.053 0.816-0.099 1.263-0.138v-24.099c-0.829-0.066-1.428-0.125-1.796-0.178-0.355-0.066-0.566-0.099-0.632-0.099-0.263-0.039-0.48-0.158-0.651-0.355-0.158-0.197-0.237-0.421-0.237-0.671 0-0.342 0.118-0.599 0.355-0.77 0.237-0.184 0.467-0.276 0.691-0.276h0.118c0.013 0 0.132 0.020 0.355 0.059 0.224 0.026 0.526 0.066 0.908 0.118 0.395 0.039 0.855 0.079 1.382 0.118 0.54 0.026 1.125 0.039 1.757 0.039s1.25-0.020 1.855-0.059c0.605-0.053 1.158-0.132 1.658-0.237 0.040-0.026 0.112-0.039 0.217-0.039 0.302 0 0.553 0.112 0.75 0.336 0.197 0.211 0.296 0.447 0.296 0.711l-0.039 25.401c0.224 0.026 0.408 0.053 0.553 0.079 0.158 0.013 0.303 0.033 0.434 0.059 0.145 0.013 0.29 0.033 0.434 0.059 0.158 0.013 0.355 0.040 0.592 0.079 0.25 0.066 0.454 0.191 0.612 0.375s0.237 0.395 0.237 0.632c0 0.303-0.112 0.553-0.335 0.75-0.211 0.197-0.447 0.296-0.711 0.296zM139.942 23.408c-0.026-0.224-0.046-0.454-0.059-0.691s-0.020-0.48-0.020-0.73h-0.73c-0.526 0-1.151 0.039-1.875 0.118-0.711 0.079-1.447 0.204-2.211 0.375s-1.52 0.401-2.27 0.691c-0.75 0.276-1.421 0.618-2.013 1.026-0.592 0.395-1.072 0.862-1.441 1.401-0.355 0.539-0.533 1.158-0.533 1.855 0 0.368 0.086 0.684 0.257 0.947 0.184 0.263 0.408 0.48 0.671 0.651 0.276 0.158 0.579 0.276 0.908 0.355 0.329 0.066 0.645 0.099 0.947 0.099 0.934 0 1.816-0.178 2.645-0.533 0.842-0.368 1.618-0.842 2.329-1.421 0.711-0.592 1.349-1.25 1.914-1.974s1.059-1.447 1.48-2.171zM149.396 30.237h-0.079c-0.224-0.026-0.454-0.039-0.691-0.039s-0.467 0-0.691 0c-1.237 0-2.428 0.079-3.572 0.237-1.132 0.158-2.27 0.401-3.414 0.73-0.040 0-0.079 0.007-0.118 0.020s-0.092 0.020-0.158 0.020c-0.303 0-0.553-0.118-0.75-0.355-0.184-0.224-0.276-0.454-0.276-0.691v-0.158c0-0.026 0.033-0.29 0.099-0.789 0.066-0.513 0.132-1.224 0.197-2.132-0.566 0.632-1.171 1.224-1.816 1.776-0.632 0.539-1.303 1.013-2.013 1.421-0.697 0.395-1.421 0.704-2.171 0.927-0.75 0.237-1.526 0.355-2.329 0.355-0.632 0-1.243-0.099-1.835-0.296-0.592-0.184-1.118-0.454-1.579-0.809-0.448-0.355-0.809-0.783-1.086-1.283-0.263-0.513-0.395-1.085-0.395-1.717 0-0.987 0.211-1.855 0.632-2.605 0.434-0.75 1-1.401 1.697-1.954 0.697-0.566 1.487-1.033 2.368-1.401 0.895-0.381 1.803-0.684 2.724-0.908 0.921-0.237 1.816-0.401 2.684-0.493 0.868-0.105 1.638-0.158 2.309-0.158h0.474c0-0.803-0.145-1.586-0.434-2.349-0.276-0.763-0.671-1.441-1.184-2.033-0.5-0.592-1.099-1.066-1.796-1.421-0.697-0.368-1.467-0.553-2.309-0.553-0.618 0-1.224 0.178-1.816 0.533-0.592 0.342-1.118 0.783-1.579 1.322s-0.836 1.145-1.125 1.816c-0.276 0.671-0.414 1.322-0.414 1.954 0 0.263-0.112 0.487-0.335 0.671-0.211 0.171-0.447 0.256-0.711 0.256-0.29 0-0.539-0.105-0.75-0.316-0.211-0.224-0.316-0.467-0.316-0.73 0-0.632 0.112-1.289 0.335-1.974 0.224-0.697 0.546-1.375 0.967-2.033 0.434-0.671 0.954-1.303 1.559-1.895 0.618-0.592 1.316-1.112 2.092-1.559 0.789-0.46 1.651-0.822 2.585-1.086s1.928-0.395 2.98-0.395c1.474 0 2.73 0.23 3.77 0.691 1.053 0.461 1.928 1.086 2.625 1.875 0.711 0.789 1.27 1.704 1.678 2.743s0.717 2.138 0.928 3.296c0.211 1.158 0.342 2.335 0.395 3.533 0.066 1.197 0.099 2.342 0.099 3.434 0 0.553-0.007 1.026-0.020 1.421s-0.020 0.724-0.020 0.987c0.197 0 0.395-0.007 0.592-0.020 0.211-0.013 0.414-0.020 0.612-0.020 0.224 0 0.454 0.007 0.691 0.020 0.25 0.013 0.493 0.020 0.73 0.020 0.29 0.026 0.52 0.138 0.691 0.335 0.184 0.197 0.276 0.441 0.276 0.73 0 0.276-0.099 0.52-0.296 0.73-0.184 0.211-0.421 0.316-0.711 0.316zM178.723 29.428c-0.027 0.263-0.145 0.487-0.355 0.671-0.211 0.171-0.448 0.256-0.711 0.256h-0.079c-0.632-0.066-1.243-0.112-1.836-0.138-0.579-0.039-1.152-0.059-1.718-0.059-0.829 0-1.624 0.040-2.387 0.119-0.751 0.066-1.487 0.158-2.211 0.276-0.027 0-0.059 0.007-0.099 0.020-0.025 0.013-0.052 0.020-0.077 0.020-0.278 0-0.52-0.105-0.731-0.316-0.211-0.224-0.316-0.467-0.316-0.73 0-0.237 0.079-0.454 0.237-0.651 0.172-0.197 0.376-0.316 0.611-0.355 0.552-0.105 1.107-0.184 1.659-0.237 0.566-0.066 1.144-0.125 1.736-0.178 0.118-0.408 0.244-0.96 0.376-1.658s0.249-1.447 0.355-2.25c0.118-0.803 0.211-1.612 0.276-2.428 0.079-0.816 0.118-1.546 0.118-2.191 0-0.671-0.039-1.401-0.118-2.191-0.066-0.789-0.231-1.526-0.493-2.21-0.251-0.697-0.62-1.276-1.107-1.737-0.473-0.461-1.112-0.691-1.913-0.691-0.908 0-1.75 0.224-2.527 0.671s-1.447 1.020-2.013 1.717c-0.553 0.684-0.993 1.441-1.322 2.27-0.316 0.829-0.474 1.625-0.474 2.388v0.040l-0.039 8.684c0.237 0.026 0.467 0.053 0.691 0.079 0.224 0.013 0.447 0.039 0.671 0.079 0.263 0.026 0.48 0.138 0.651 0.335 0.184 0.184 0.276 0.408 0.276 0.671 0 0.29-0.112 0.539-0.335 0.75-0.211 0.211-0.447 0.316-0.711 0.316-0.053 0-0.092-0.020-0.118-0.059-0.789-0.079-1.599-0.158-2.428-0.237-0.816-0.079-1.678-0.119-2.585-0.119-0.816 0-1.678 0.040-2.586 0.119-0.895 0.092-1.855 0.23-2.882 0.414-0.053 0.026-0.118 0.040-0.197 0.040-0.303 0-0.546-0.112-0.73-0.335s-0.276-0.467-0.276-0.73c0-0.237 0.072-0.454 0.217-0.651s0.342-0.316 0.592-0.355c0.487-0.105 0.954-0.184 1.401-0.237 0.447-0.066 0.895-0.118 1.342-0.158v-15.079c-0.829-0.039-1.526-0.086-2.092-0.138-0.553-0.066-0.862-0.112-0.928-0.138-0.263-0.026-0.48-0.138-0.651-0.336-0.158-0.197-0.237-0.428-0.237-0.691 0-0.316 0.112-0.566 0.335-0.75 0.224-0.197 0.46-0.296 0.711-0.296 0.053 0 0.092 0.013 0.118 0.039 0.013 0 0.165 0.013 0.454 0.039s0.665 0.059 1.125 0.099c0.474 0.039 1.007 0.072 1.599 0.099s1.204 0.039 1.836 0.039 1.25-0.013 1.855-0.039c0.605-0.039 1.158-0.118 1.658-0.237 0.026 0 0.053-0.007 0.079-0.020 0.039-0.013 0.079-0.020 0.118-0.020 0.303 0 0.553 0.112 0.75 0.336 0.211 0.211 0.316 0.447 0.316 0.711v2.033c0.763-1.118 1.671-1.961 2.724-2.526 1.066-0.579 2.27-0.868 3.612-0.868 0.788 0 1.474 0.138 2.051 0.414 0.593 0.263 1.1 0.625 1.521 1.086 0.435 0.46 0.783 0.993 1.046 1.599 0.276 0.592 0.493 1.217 0.652 1.875 0.17 0.658 0.283 1.329 0.335 2.013 0.066 0.671 0.098 1.303 0.098 1.895 0 0.658-0.032 1.382-0.098 2.171-0.066 0.776-0.152 1.553-0.258 2.329-0.091 0.776-0.204 1.513-0.335 2.211-0.118 0.697-0.236 1.289-0.355 1.776 0.5 0.026 1.014 0.053 1.539 0.079 0.541 0.026 1.086 0.072 1.639 0.138 0.303 0.026 0.532 0.158 0.691 0.395 0.172 0.224 0.258 0.467 0.258 0.73zM197.767 15.434c-0.197-0.592-0.493-1.105-0.889-1.539-0.394-0.434-0.847-0.796-1.361-1.086-0.5-0.289-1.039-0.5-1.619-0.632-0.579-0.145-1.165-0.217-1.757-0.217-0.894 0-1.691 0.145-2.388 0.434-0.697 0.276-1.309 0.658-1.836 1.145-0.525 0.474-0.98 1.033-1.361 1.678-0.369 0.632-0.672 1.303-0.909 2.013-0.236 0.697-0.408 1.414-0.512 2.151-0.106 0.737-0.158 1.447-0.158 2.132 0.013 0.961 0.145 1.888 0.394 2.783 0.264 0.882 0.645 1.671 1.145 2.368 0.514 0.684 1.132 1.237 1.856 1.658 0.736 0.408 1.585 0.612 2.545 0.612 0.883 0 1.666-0.204 2.349-0.612 0.684-0.421 1.283-0.947 1.795-1.579 0.527-0.632 0.968-1.322 1.322-2.072 0.355-0.763 0.638-1.487 0.849-2.171 0.211-0.697 0.355-1.309 0.435-1.836 0.093-0.539 0.125-0.895 0.099-1.066v-4.164zM207.181 30.237h-0.079c-0.33-0.026-0.659-0.046-0.987-0.059-0.317-0.013-0.625-0.020-0.928-0.020-0.842 0-1.632 0.040-2.368 0.119-0.738 0.079-1.383 0.164-1.935 0.256-0.539 0.105-0.973 0.197-1.302 0.276-0.317 0.079-0.48 0.118-0.493 0.118-0.040 0.026-0.086 0.039-0.138 0.039s-0.099 0-0.138 0c-0.303 0-0.552-0.112-0.749-0.335-0.199-0.211-0.296-0.447-0.296-0.711v-3.355c-0.303 0.632-0.691 1.217-1.165 1.757-0.46 0.539-0.98 1.007-1.558 1.401-0.579 0.395-1.218 0.704-1.915 0.928-0.684 0.237-1.401 0.355-2.151 0.355-1.263 0-2.388-0.257-3.375-0.77s-1.829-1.197-2.526-2.053c-0.685-0.868-1.211-1.875-1.58-3.020s-0.559-2.349-0.573-3.612c0-0.987 0.079-1.954 0.237-2.901 0.17-0.96 0.428-1.868 0.77-2.724 0.342-0.868 0.763-1.671 1.263-2.408 0.514-0.737 1.112-1.368 1.795-1.895 0.685-0.539 1.455-0.961 2.309-1.263 0.856-0.303 1.804-0.454 2.843-0.454 1.145 0 2.191 0.171 3.138 0.513 0.948 0.342 1.777 0.816 2.488 1.421v-7.954c-0.817-0.039-1.507-0.092-2.073-0.158-0.552-0.066-0.861-0.099-0.926-0.099-0.264-0.039-0.488-0.158-0.672-0.355-0.17-0.197-0.256-0.428-0.256-0.691 0-0.289 0.104-0.526 0.315-0.711 0.224-0.197 0.468-0.296 0.731-0.296h0.118c0.013 0 0.165 0.020 0.455 0.059 0.29 0.026 0.664 0.059 1.125 0.099 0.473 0.039 1.012 0.079 1.619 0.118 0.605 0.026 1.223 0.039 1.854 0.039 0.618 0 1.224-0.020 1.816-0.059 0.606-0.053 1.159-0.138 1.659-0.257h0.256c0.303 0 0.546 0.105 0.731 0.316 0.184 0.197 0.276 0.428 0.276 0.691v25.5h0.394c0.342 0 0.684 0.007 1.026 0.020 0.355 0 0.704 0.020 1.046 0.059 0.29 0.026 0.52 0.138 0.692 0.335 0.184 0.197 0.276 0.428 0.276 0.691 0 0.316-0.12 0.572-0.355 0.77-0.224 0.184-0.455 0.276-0.691 0.276z"></path>
</symbol>
</defs>
</svg>
