<svg xmlns="http://www.w3.org/2000/svg"><defs><style>.icon { display: none; }.icon:target { display: inline; }</style></defs><svg viewBox="0 0 20 20"><g id="icon-google" class="icon">
<path d="M10 20C15.5228 20 20 15.5228 20 10C20 4.47715 15.5228 0 10 0C4.47715 0 0 4.47715 0 10C0 15.5228 4.47715 20 10 20Z" fill="#273B7A"/>
<path d="M19.7748 12.1154L13.6607 6.00122L8.5633 6.4081L5.95947 8.78505L6.29361 13.9556L12.0828 19.7817C15.9229 18.968 18.9485 15.9508 19.7748 12.1154Z" fill="#121149"/>
<path d="M10.2183 9.08051V10.9967H13.2151C12.7901 12.3684 11.5117 13.3648 10.0003 13.3648C8.14182 13.3648 6.63514 11.8582 6.63514 9.99961C6.63506 8.14117 8.14166 6.63449 10.0002 6.63449C10.8687 6.63449 11.6578 6.96641 12.2549 7.5066L13.661 6.00121C12.6964 5.11766 11.4114 4.57812 10.0002 4.57812C7.00596 4.57812 4.57861 7.00539 4.57861 9.99969C4.57861 12.994 7.00596 15.4212 10.0002 15.4212C12.9945 15.4212 15.4218 12.9939 15.4218 9.99969C15.4218 9.68602 15.3928 9.37941 15.3413 9.08051H10.2183Z" fill="#4285F4"/>
<path d="M10 6.63457C10.8686 6.63457 11.6577 6.96648 12.2547 7.50668L13.6608 6.00129C12.6963 5.11766 11.4113 4.57812 10 4.57812C7.92355 4.57812 6.12066 5.74594 5.20996 7.46008L6.86449 8.78512C7.35207 7.52769 8.57035 6.63457 10 6.63457Z" fill="#EA4335"/>
<path d="M6.6351 10.0005C6.6351 9.57168 6.71838 9.16313 6.86467 8.78598L5.21014 7.46094C4.8076 8.21863 4.57861 9.0827 4.57861 10.0005C4.57861 10.9226 4.80951 11.7906 5.21553 12.5508L6.86025 11.203C6.71697 10.829 6.6351 10.4248 6.6351 10.0005Z" fill="#FBBC05"/>
<path d="M11.8714 12.7955C11.3362 13.1546 10.6936 13.3659 10.0006 13.3659C8.56629 13.3659 7.34492 12.467 6.86055 11.2031L5.21582 12.5509C6.1284 14.2593 7.92836 15.4223 10.0005 15.4223C11.3462 15.4223 12.5764 14.9309 13.5242 14.1192L11.8714 12.7955Z" fill="#34A853"/>
<path d="M15.4217 9.99999C15.4217 9.68632 15.3928 9.37972 15.3412 9.08081H10.2183V10.997H13.215C12.9849 11.7398 12.5031 12.3707 11.871 12.7948L13.5238 14.1185C14.685 13.1241 15.4217 11.6485 15.4217 9.99999Z" fill="#4285F4"/>
</g></svg><svg viewBox="0 0 20.000668 20.000668"><g id="twiter" class="icon">
<path d="M16.4227 19.6576C12.1452 20.1141 7.85477 20.1141 3.57727 19.6576C1.87164 19.4756 0.524445 18.1284 0.342407 16.4226C-0.114136 12.1451 -0.114136 7.85477 0.342407 3.57727C0.524445 1.87164 1.87164 0.524445 3.57727 0.342407C7.85477 -0.114136 12.1451 -0.114136 16.4226 0.342407C18.1284 0.524445 19.4756 1.87164 19.6576 3.57727C20.1141 7.85477 20.1141 12.1451 19.6576 16.4226C19.4756 18.1284 18.1285 19.4756 16.4227 19.6576Z" fill="url(#paint0_linear_1_184)"/>
<path d="M18.5699 4.30058C18.4085 2.78706 17.2131 1.59154 15.6994 1.42995C11.9037 1.02498 8.0966 1.02498 4.30083 1.42995C2.78731 1.59154 1.59178 2.78706 1.43019 4.30058C1.02522 8.09636 1.02522 11.9034 1.43019 15.6991C1.59178 17.2127 2.78731 18.4082 4.30083 18.5697C8.0966 18.9748 11.9037 18.9748 15.6993 18.5697C17.213 18.4082 18.4085 17.2127 18.5699 15.6991C18.9751 11.9034 18.9751 8.09636 18.5699 4.30058Z" fill="url(#paint1_linear_1_184)"/>
<path d="M0.299805 16.0081C0.313538 16.1463 0.327728 16.2845 0.342529 16.4228C0.524567 18.1284 1.87177 19.4756 3.57755 19.6577C7.85504 20.1142 12.1454 20.1142 16.4229 19.6577C18.1286 19.4756 19.4757 18.1284 19.6577 16.4228C19.6725 16.2845 19.6867 16.1463 19.7006 16.0081H0.299805Z" fill="url(#paint2_linear_1_184)"/>
<path d="M19.9959 9.29712L15.8445 5.14581C15.3792 5.41177 14.9692 5.55933 14.6604 5.64111C14.4867 5.68765 14.345 5.71298 14.243 5.72687C13.7749 5.24698 13.1212 4.94897 12.3976 4.94897C10.974 4.94897 9.81967 6.10315 9.81967 7.5271C9.81967 7.57852 9.82104 7.62933 9.8244 7.67999C9.83127 7.80344 9.84698 7.92474 9.87125 8.04269C9.27692 8.03384 7.34515 7.87515 5.50281 6.29587C5.50266 6.29587 5.50266 6.29572 5.50266 6.29572H5.5025L4.63367 5.42673C4.63367 5.42673 3.61438 7.20575 5.11295 8.55569C5.17871 8.62909 5.25104 8.70157 5.33023 8.77283C5.33649 8.77985 5.34305 8.78671 5.3493 8.79373C5.15262 8.78046 4.56104 8.72156 4.21863 8.47971C4.21863 8.47971 4.14981 9.56705 5.05573 10.3675L5.78723 11.1053C5.56445 11.1237 5.31802 11.1193 5.14667 11.0443C5.14667 11.0443 5.29834 11.6883 5.88458 12.2038L6.90936 13.2339C6.29459 13.592 5.21838 14.0402 3.80176 13.9257L10.0183 19.9999C12.1543 19.9993 14.2902 19.8852 16.4229 19.6575C18.1287 19.4755 19.4759 18.1283 19.6579 16.4227C19.9111 14.0499 20.0235 11.6732 19.9959 9.29712Z" fill="url(#paint3_linear_1_184)"/>
<path d="M16.1984 6.14709C15.7559 6.37857 15.0894 6.48553 14.8685 6.51636C14.8666 6.50568 14.8648 6.49545 14.863 6.48523C15.6142 6.0206 15.8441 5.14581 15.8441 5.14581C15.3789 5.41177 14.9689 5.55933 14.66 5.64111C14.4864 5.68765 14.3446 5.71283 14.2427 5.72687C13.7746 5.24683 13.1209 4.94897 12.3973 4.94897C10.9737 4.94897 9.81934 6.103 9.81934 7.5271C9.81934 7.57837 9.82071 7.62933 9.82407 7.67984C9.83093 7.80328 9.84665 7.92459 9.87091 8.04254C9.18182 8.03232 6.69449 7.82098 4.63333 5.42673C4.63333 5.42673 3.48557 7.42929 5.41519 8.79724C5.41519 8.79724 4.63333 8.77283 4.21829 8.47971C4.21829 8.47971 4.09622 10.4093 6.31866 11.0197C6.31866 11.0197 5.53726 11.2153 5.14618 11.0443C5.14618 11.0443 5.53711 12.705 7.491 12.8274C7.491 12.8274 6.08963 14.1104 3.80127 13.9257C4.92676 14.6383 6.26114 15.0508 7.6918 15.0508C11.7145 15.0508 14.9756 11.7898 14.9756 7.76712C14.9756 7.71692 14.9751 7.66672 14.9741 7.61652C14.9751 7.58676 14.9756 7.55716 14.9756 7.5271C14.9756 7.5062 14.9751 7.48529 14.9748 7.46439C15.7185 6.96878 16.1984 6.14709 16.1984 6.14709Z" fill="white"/>
<defs>
<linearGradient id="paint0_linear_1_184" x1="6.64039" y1="2.81196" x2="11.699" y2="13.635" gradientUnits="userSpaceOnUse">
<stop stop-color="#00C3FF"/>
<stop offset="1" stop-color="#00B0ED"/>
</linearGradient>
<linearGradient id="paint1_linear_1_184" x1="14.2299" y1="12.2689" x2="-14.8275" y2="-3.31855" gradientUnits="userSpaceOnUse">
<stop stop-color="#00B0ED" stop-opacity="0"/>
<stop offset="1" stop-color="#00A2CE"/>
</linearGradient>
<linearGradient id="paint2_linear_1_184" x1="10.0001" y1="17.0853" x2="10.0001" y2="19.706" gradientUnits="userSpaceOnUse">
<stop stop-color="#00B0ED" stop-opacity="0"/>
<stop offset="1" stop-color="#00A2CE"/>
</linearGradient>
<linearGradient id="paint3_linear_1_184" x1="19.1182" y1="18.8309" x2="9.34759" y2="9.06029" gradientUnits="userSpaceOnUse">
<stop stop-color="#00B0ED" stop-opacity="0"/>
<stop offset="1" stop-color="#00A2CE"/>
</linearGradient>
</defs>
</g></svg><svg viewBox="0 0 20.000668 20.000431"><g id="instagram" class="icon">
<path d="M19.6576 3.57713C19.4756 1.87157 18.1285 0.524271 16.4227 0.342394C12.1451 -0.114131 7.85492 -0.114131 3.57742 0.342394C1.87164 0.524424 0.524445 1.87157 0.342407 3.57713C-0.114136 7.85445 -0.114136 12.1446 0.342407 16.4219C0.524445 18.1276 1.87164 19.4748 3.57727 19.6568C7.85477 20.1133 12.1451 20.1133 16.4227 19.6568C18.1285 19.4748 19.4756 18.1276 19.6576 16.4219C20.1141 12.1446 20.1141 7.85461 19.6576 3.57713Z" fill="url(#paint0_radial_1_168)"/>
<path d="M18.5699 4.30046C18.4085 2.787 17.2131 1.59152 15.6994 1.42993C11.9037 1.02498 8.0966 1.02498 4.30083 1.42993C2.78731 1.59152 1.59178 2.787 1.43019 4.30046C1.02522 8.09608 1.02522 11.903 1.43019 15.6985C1.59178 17.2121 2.78731 18.4076 4.30083 18.569C8.0966 18.9741 11.9037 18.9741 15.6993 18.569C17.213 18.4076 18.4085 17.2121 18.5699 15.6985C18.9751 11.903 18.9751 8.09608 18.5699 4.30046Z" fill="url(#paint1_linear_1_168)"/>
<path d="M0.299316 16.0066C0.313049 16.1448 0.32724 16.2831 0.342041 16.4213C0.524078 18.1269 1.87128 19.474 3.57706 19.656C7.85455 20.1126 12.1449 20.1126 16.4224 19.656C18.1281 19.474 19.4752 18.1269 19.6572 16.4213C19.672 16.2831 19.6862 16.1448 19.7001 16.0066H0.299316Z" fill="url(#paint2_linear_1_168)"/>
<path d="M19.6575 16.4226C19.9029 14.1243 20.0161 11.8223 19.9978 9.52059L15.4262 4.94924C14.8551 4.29725 14.0209 3.89032 13.0407 3.85507C11.0248 3.78244 9.00259 3.78611 6.98645 3.85538C5.31195 3.91305 4.14099 5.0385 3.8407 6.69264C3.78775 6.98468 3.75601 7.28053 3.71436 7.57471V12.4241C3.7374 12.5812 3.77127 12.7376 3.7818 12.8957C3.84894 13.9018 4.26245 14.7636 4.92453 15.3466L9.57663 19.9984C11.8597 20.0144 14.1428 19.9009 16.4226 19.6575C18.1284 19.4755 19.4755 18.1283 19.6575 16.4226Z" fill="url(#paint3_linear_1_168)"/>
<path d="M19.6574 16.4209C19.4756 18.1263 18.1281 19.4738 16.4226 19.6557C14.1431 19.8989 11.8594 20.0126 9.57672 19.9965L4.93164 15.3516C5.47012 15.823 6.17203 16.11 6.98654 16.1406C9.00223 16.2163 11.0249 16.2143 13.0406 16.1417C14.8637 16.0758 16.183 14.7265 16.2399 12.9035C16.3007 10.9678 16.3007 9.02712 16.2399 7.09147C16.214 6.25044 15.9187 5.51041 15.4292 4.95044L19.9979 9.51889C20.0159 11.8203 19.9026 14.1226 19.6574 16.4209Z" fill="url(#paint4_linear_1_168)"/>
<path d="M12.3602 7.83458C11.7746 7.19694 10.9343 6.79688 10.0003 6.79688C8.2312 6.79688 6.79688 8.23114 6.79688 10.0002C6.79688 10.9341 7.19696 11.7744 7.83463 12.36L15.2463 19.7714C15.6386 19.7372 16.0309 19.6992 16.4229 19.6574C18.1287 19.4754 19.4759 18.1282 19.6579 16.4225C19.6997 16.0305 19.7377 15.6382 19.7719 15.2459L12.3602 7.83458Z" fill="url(#paint5_linear_1_168)"/>
<path d="M19.9613 12.1537L13.9964 6.18914C13.8572 6.0065 13.6379 5.88794 13.3906 5.88794C12.9698 5.88794 12.6284 6.22911 12.6284 6.65009C12.6284 6.89742 12.747 7.11668 12.9296 7.25584L19.8547 14.1808C19.9017 13.5053 19.9372 12.8295 19.9613 12.1537Z" fill="url(#paint6_linear_1_168)"/>
<path d="M3.71436 7.57471C3.75601 7.28053 3.78775 6.98468 3.8407 6.69264C4.14084 5.0385 5.31195 3.91305 6.98645 3.85538C9.00259 3.78611 11.0248 3.78244 13.0407 3.85507C14.8632 3.92068 16.1831 5.27012 16.24 7.09316C16.3006 9.02897 16.3006 10.9695 16.24 12.9053C16.1831 14.7284 14.8636 16.0776 13.0408 16.1434C11.025 16.2162 9.00229 16.218 6.9866 16.1423C5.16379 16.0738 3.90372 14.7213 3.7818 12.8955C3.77127 12.7376 3.7374 12.5811 3.71436 12.4239C3.71436 10.8075 3.71436 9.19101 3.71436 7.57471ZM10.0016 15.063C10.9241 15.063 11.8476 15.0906 12.7689 15.0566C14.2135 15.003 15.102 14.1409 15.1357 12.6978C15.1775 10.8996 15.1775 9.09901 15.1357 7.30068C15.102 5.85786 14.2129 4.97563 12.7689 4.94496C10.9362 4.90621 9.10147 4.90651 7.26874 4.94496C5.83578 4.97502 4.94467 5.8394 4.90576 7.26634C4.85632 9.08726 4.85632 10.9114 4.90576 12.7323C4.94467 14.1591 5.83578 15.0035 7.26889 15.0566C8.17862 15.0904 9.09064 15.063 10.0016 15.063Z" fill="url(#paint7_linear_1_168)"/>
<path d="M3.71436 7.57471C3.75601 7.28053 3.78775 6.98468 3.8407 6.69264C4.14084 5.0385 5.31195 3.91305 6.98645 3.85538C9.00259 3.78611 11.0248 3.78244 13.0407 3.85507C14.8632 3.92068 16.1831 5.27012 16.24 7.09316C16.3006 9.02897 16.3006 10.9695 16.24 12.9053C16.1831 14.7284 14.8636 16.0776 13.0408 16.1434C11.025 16.2162 9.00229 16.218 6.9866 16.1423C5.16379 16.0738 3.90372 14.7213 3.7818 12.8955C3.77127 12.7376 3.7374 12.5811 3.71436 12.4239C3.71436 10.8075 3.71436 9.19101 3.71436 7.57471ZM10.0016 15.063C10.9241 15.063 11.8476 15.0906 12.7689 15.0566C14.2135 15.003 15.102 14.1409 15.1357 12.6978C15.1775 10.8996 15.1775 9.09901 15.1357 7.30068C15.102 5.85786 14.2129 4.97563 12.7689 4.94496C10.9362 4.90621 9.10147 4.90651 7.26874 4.94496C5.83578 4.97502 4.94467 5.8394 4.90576 7.26634C4.85632 9.08726 4.85632 10.9114 4.90576 12.7323C4.94467 14.1591 5.83578 15.0035 7.26889 15.0566C8.17862 15.0904 9.09064 15.063 10.0016 15.063Z" fill="white"/>
<path d="M10.0003 6.79614C8.2312 6.79614 6.79688 8.23026 6.79688 9.99929C6.79688 11.7685 8.2312 13.2026 10.0003 13.2026C11.7696 13.2026 13.2037 11.7685 13.2037 9.99929C13.2037 8.23026 11.7696 6.79614 10.0003 6.79614ZM10.0003 12.0997C8.84018 12.0997 7.89978 11.1594 7.89978 9.99929C7.89978 8.83921 8.84018 7.89885 10.0003 7.89885C11.1604 7.89885 12.1008 8.83921 12.1008 9.99929C12.1008 11.1594 11.1604 12.0997 10.0003 12.0997Z" fill="white"/>
<path d="M14.1526 6.64935C14.1526 7.07017 13.8114 7.41135 13.3906 7.41135C12.9698 7.41135 12.6284 7.07017 12.6284 6.64935C12.6284 6.22838 12.9698 5.88721 13.3906 5.88721C13.8114 5.88721 14.1526 6.22838 14.1526 6.64935Z" fill="white"/>
<defs>
<radialGradient id="paint0_radial_1_168" cx="0" cy="0" r="1" gradientUnits="userSpaceOnUse" gradientTransform="translate(4.09989 17.4777) scale(22.0565 22.0556)">
<stop stop-color="#FAE100"/>
<stop offset="0.0544" stop-color="#FADC04"/>
<stop offset="0.1167" stop-color="#FBCE0E"/>
<stop offset="0.1829" stop-color="#FCB720"/>
<stop offset="0.2514" stop-color="#FE9838"/>
<stop offset="0.3054" stop-color="#FF7950"/>
<stop offset="0.4922" stop-color="#FF1C74"/>
<stop offset="1" stop-color="#6C1CD1"/>
</radialGradient>
<linearGradient id="paint1_linear_1_168" x1="7.67095" y1="8.68942" x2="-26.2108" y2="-10.3698" gradientUnits="userSpaceOnUse">
<stop stop-color="#A1B5D8" stop-opacity="0"/>
<stop offset="0.3094" stop-color="#90A2BD" stop-opacity="0.309804"/>
<stop offset="0.7554" stop-color="#7C8B9C" stop-opacity="0.756863"/>
<stop offset="1" stop-color="#748290"/>
</linearGradient>
<linearGradient id="paint2_linear_1_168" x1="9.99965" y1="17.6535" x2="9.99965" y2="20.7708" gradientUnits="userSpaceOnUse">
<stop stop-color="#FAE100" stop-opacity="0"/>
<stop offset="0.3068" stop-color="#FCA800" stop-opacity="0.305882"/>
<stop offset="0.6275" stop-color="#FE7300" stop-opacity="0.627451"/>
<stop offset="0.8685" stop-color="#FF5200" stop-opacity="0.866667"/>
<stop offset="1" stop-color="#FF4500"/>
</linearGradient>
<linearGradient id="paint3_linear_1_168" x1="8.86211" y1="8.83426" x2="3.91263" y2="3.88458" gradientUnits="userSpaceOnUse">
<stop stop-color="#833AB4" stop-opacity="0"/>
<stop offset="1" stop-color="#833AB4"/>
</linearGradient>
<linearGradient id="paint4_linear_1_168" x1="13.7069" y1="18.2906" x2="11.2366" y2="6.64455" gradientUnits="userSpaceOnUse">
<stop stop-color="#833AB4" stop-opacity="0"/>
<stop offset="1" stop-color="#833AB4"/>
</linearGradient>
<linearGradient id="paint5_linear_1_168" x1="14.6474" y1="14.6471" x2="4.72496" y2="4.72424" gradientUnits="userSpaceOnUse">
<stop stop-color="#833AB4" stop-opacity="0"/>
<stop offset="1" stop-color="#833AB4"/>
</linearGradient>
<linearGradient id="paint6_linear_1_168" x1="15.3832" y1="8.64255" x2="12.102" y2="5.36127" gradientUnits="userSpaceOnUse">
<stop stop-color="#833AB4" stop-opacity="0"/>
<stop offset="1" stop-color="#833AB4"/>
</linearGradient>
<linearGradient id="paint7_linear_1_168" x1="13.9709" y1="6.05708" x2="5.8808" y2="14.1475" gradientUnits="userSpaceOnUse">
<stop stop-color="#833AB4"/>
<stop offset="0.0922" stop-color="#9C3495"/>
<stop offset="0.2927" stop-color="#DC2546"/>
<stop offset="0.392" stop-color="#FD1D1D"/>
<stop offset="0.5589" stop-color="#FC6831"/>
<stop offset="0.6887" stop-color="#FC9B40"/>
<stop offset="0.7521" stop-color="#FCAF45"/>
<stop offset="0.7806" stop-color="#FDB750"/>
<stop offset="0.8656" stop-color="#FECB6A"/>
<stop offset="0.9415" stop-color="#FFD87A"/>
<stop offset="1" stop-color="#FFDC80"/>
</linearGradient>
</defs>
</g></svg><svg viewBox="0 0 20 20"><g id="facebook" class="icon">
<path d="M17.5 0H2.5C1.12083 0 0 1.12083 0 2.5V17.5C0 18.8783 1.12083 20 2.5 20H17.5C18.8783 20 20 18.8783 20 17.5V2.5C20 1.12083 18.8783 0 17.5 0Z" fill="#3B5999"/>
<path d="M13.75 10V7.5C13.75 6.81 14.31 6.875 15 6.875H16.25V3.75H13.75C11.6783 3.75 10 5.42833 10 7.5V10H7.5V13.125H10V20H13.75V13.125H15.625L16.875 10H13.75Z" fill="white"/>
</g></svg><svg viewBox="0 0 13 11"><g id="arrow" class="icon">
<path d="M6 11L1 6L6 1" stroke="black" stroke-width="2" stroke-linecap="round" stroke-linejoin="round"/>
<path d="M13.0001 11L8.00012 6L13.0001 1" stroke="black" stroke-width="2" stroke-linecap="round" stroke-linejoin="round"/>
</g></svg><svg viewBox="0 0 21.232729 19.901209"><g id="star" class="icon">
<path d="M10.3829 0.463526C10.5325 0.00287056 11.1843 0.00287008 11.3339 0.463525L13.4403 6.9463C13.5072 7.15232 13.6992 7.2918 13.9158 7.2918H20.7322C21.2166 7.2918 21.418 7.9116 21.0261 8.1963L15.5115 12.2029C15.3363 12.3302 15.263 12.5559 15.3299 12.7619L17.4363 19.2447C17.586 19.7053 17.0587 20.0884 16.6669 19.8037L11.1523 15.7971C10.977 15.6698 10.7397 15.6698 10.5645 15.7971L5.04993 19.8037C4.65807 20.0884 4.13083 19.7053 4.2805 19.2447L6.38689 12.7619C6.45382 12.5559 6.38049 12.3302 6.20525 12.2029L0.69067 8.1963C0.298813 7.9116 0.500201 7.2918 0.984562 7.2918H7.80096C8.01757 7.2918 8.20955 7.15232 8.27649 6.9463L10.3829 0.463526Z" fill="#FFC700"/>
</g></svg><svg viewBox="0 0 10.858666 15.201333"><g id="mark" class="icon">
<path d="M5.4302 6.51542C6.02989 6.51542 6.51603 6.02928 6.51603 5.42959C6.51603 4.8299 6.02989 4.34375 5.4302 4.34375C4.83051 4.34375 4.34436 4.8299 4.34436 5.42959C4.34436 6.02928 4.83051 6.51542 5.4302 6.51542Z" fill="#FC1200"/>
<path d="M5.42918 0C2.43567 0 0 2.32946 0 5.19165C0 6.55472 0.621302 8.36738 1.8466 10.5794C2.83064 12.3555 3.96907 13.9615 4.56119 14.7606C4.66124 14.8971 4.79207 15.0082 4.94305 15.0847C5.09403 15.1612 5.26092 15.2011 5.4302 15.2011C5.59947 15.2011 5.76637 15.1612 5.91735 15.0847C6.06833 15.0082 6.19915 14.8971 6.29921 14.7606C6.89031 13.9615 8.02976 12.3555 9.0138 10.5794C10.2371 8.36806 10.8584 6.5554 10.8584 5.19165C10.8584 2.32946 8.42269 0 5.42918 0ZM5.42918 7.60085C4.99966 7.60085 4.57979 7.47348 4.22266 7.23486C3.86553 6.99623 3.58719 6.65706 3.42282 6.26024C3.25845 5.86342 3.21544 5.42677 3.29924 5.00551C3.38303 4.58424 3.58986 4.19729 3.89358 3.89358C4.19729 3.58986 4.58425 3.38303 5.00551 3.29924C5.42677 3.21544 5.86342 3.25845 6.26024 3.42282C6.65706 3.58718 6.99623 3.86553 7.23486 4.22266C7.47349 4.57979 7.60085 4.99966 7.60085 5.42918C7.60022 6.00495 7.37122 6.55696 6.96409 6.96409C6.55696 7.37122 6.00495 7.60022 5.42918 7.60085Z" fill="#FC1200"/>
</g></svg><svg viewBox="0 0 123.63467 18.797333"><g id="logo" class="icon">
<path d="M15.457 5.61328C15.457 5.63672 15.4609 5.66797 15.4688 5.70703C15.4766 5.73828 15.4805 5.77344 15.4805 5.8125C15.4805 5.97656 15.4141 6.12109 15.2812 6.24609C15.1562 6.37109 15.0156 6.43359 14.8594 6.43359C14.7344 6.43359 14.6172 6.39453 14.5078 6.31641C14.4062 6.23828 14.332 6.13281 14.2852 6C14.1836 5.70312 14.0859 5.38672 13.9922 5.05078C13.8984 4.70703 13.8125 4.37109 13.7344 4.04297C13.6641 3.71484 13.5977 3.40625 13.5352 3.11719C13.4727 2.82812 13.4258 2.58203 13.3945 2.37891C12.9492 2.40234 12.4414 2.42188 11.8711 2.4375C11.3008 2.44531 10.6875 2.44922 10.0312 2.44922L9.64453 16.9219C10.2852 16.9453 10.9023 16.9922 11.4961 17.0625C11.668 17.0781 11.8008 17.1445 11.8945 17.2617C11.9961 17.3711 12.0469 17.5039 12.0469 17.6602C12.0469 17.8555 11.9805 18.0078 11.8477 18.1172C11.7227 18.2344 11.5898 18.293 11.4492 18.293H11.3789C10.7461 18.2148 10.1211 18.1602 9.50391 18.1289C8.88672 18.1055 8.26953 18.0938 7.65234 18.0938C7.02734 18.0938 6.41406 18.1055 5.8125 18.1289C5.21094 18.1602 4.60938 18.2148 4.00781 18.293H3.9375C3.76562 18.293 3.61719 18.2266 3.49219 18.0938C3.375 17.9609 3.31641 17.8164 3.31641 17.6602C3.31641 17.5039 3.36719 17.3711 3.46875 17.2617C3.57812 17.1445 3.71094 17.0781 3.86719 17.0625C4.46875 16.9922 5.05859 16.9453 5.63672 16.9219L5.90625 2.37891C5.24219 2.35547 4.61719 2.32812 4.03125 2.29688C3.45312 2.25781 2.93359 2.21875 2.47266 2.17969C2.42578 2.39062 2.36719 2.64844 2.29688 2.95312C2.23438 3.25781 2.16016 3.58203 2.07422 3.92578C1.99609 4.26953 1.91406 4.62109 1.82812 4.98047C1.74219 5.33203 1.65234 5.66406 1.55859 5.97656C1.51953 6.10938 1.44531 6.21875 1.33594 6.30469C1.23438 6.39062 1.11719 6.43359 0.984375 6.43359C0.804688 6.43359 0.65625 6.37109 0.539062 6.24609C0.421875 6.11328 0.363281 5.96875 0.363281 5.8125C0.363281 5.78906 0.363281 5.76172 0.363281 5.73047C0.363281 5.69141 0.371094 5.66016 0.386719 5.63672C0.503906 5.22266 0.621094 4.76953 0.738281 4.27734C0.855469 3.78516 0.960938 3.32422 1.05469 2.89453C1.15625 2.46484 1.23828 2.10547 1.30078 1.81641C1.36328 1.52734 1.39453 1.37891 1.39453 1.37109C1.43359 1.22266 1.50391 1.10547 1.60547 1.01953C1.71484 0.933594 1.84375 0.890625 1.99219 0.890625H2.08594C2.49219 0.945312 2.98438 0.992188 3.5625 1.03125C4.14844 1.07031 4.77734 1.10547 5.44922 1.13672C6.12891 1.16016 6.83203 1.17969 7.55859 1.19531C8.28516 1.21094 8.99609 1.21875 9.69141 1.21875C10.543 1.21875 11.3281 1.21094 12.0469 1.19531C12.7656 1.17188 13.3672 1.14062 13.8516 1.10156H13.8984C14.0391 1.10156 14.168 1.15234 14.2852 1.25391C14.4023 1.34766 14.4727 1.46484 14.4961 1.60547C14.4961 1.61328 14.5078 1.67969 14.5312 1.80469C14.5547 1.92969 14.5859 2.09766 14.625 2.30859C14.6641 2.51953 14.7109 2.76172 14.7656 3.03516C14.8281 3.30859 14.8945 3.59375 14.9648 3.89062C15.0352 4.17969 15.1094 4.47656 15.1875 4.78125C15.2734 5.07812 15.3633 5.35547 15.457 5.61328ZM28.8267 12.1875C28.5377 12.1875 28.2642 12.1328 28.0064 12.0234C27.7564 11.9141 27.5377 11.7656 27.3502 11.5781C27.1627 11.3906 27.0142 11.1719 26.9048 10.9219C26.7955 10.6641 26.7408 10.3906 26.7408 10.1016C26.7408 9.8125 26.7955 9.54297 26.9048 9.29297C27.0142 9.03516 27.1627 8.8125 27.3502 8.625C27.5377 8.42969 27.7564 8.27734 28.0064 8.16797C28.2642 8.05078 28.5377 7.99219 28.8267 7.99219C28.8658 7.99219 28.9009 7.99609 28.9322 8.00391C28.9713 8.01172 29.0103 8.01562 29.0494 8.01562C28.8463 7.85938 28.608 7.74219 28.3345 7.66406C28.0689 7.57812 27.7603 7.53516 27.4088 7.53516C26.9634 7.53516 26.5767 7.62891 26.2486 7.81641C25.9205 7.99609 25.6392 8.22656 25.4048 8.50781C25.1783 8.78125 24.9947 9.08203 24.8541 9.41016C24.7134 9.73047 24.6002 10.0352 24.5142 10.3242C24.4361 10.6055 24.3814 10.8477 24.3502 11.0508C24.3267 11.2539 24.315 11.3711 24.315 11.4023L24.2916 16.6055C24.565 16.6289 24.8384 16.6641 25.1119 16.7109C25.3931 16.7578 25.6783 16.8047 25.9673 16.8516C26.1158 16.8906 26.2369 16.9688 26.3306 17.0859C26.4244 17.1953 26.4713 17.3242 26.4713 17.4727C26.4713 17.6445 26.4048 17.7891 26.272 17.9062C26.1392 18.0156 25.9986 18.0703 25.8502 18.0703H25.733C25.1002 17.9531 24.4986 17.8633 23.9283 17.8008C23.358 17.7383 22.7916 17.707 22.2291 17.707C21.6666 17.707 21.1041 17.7383 20.5416 17.8008C19.9791 17.8633 19.3814 17.9531 18.7486 18.0703H18.6314C18.4517 18.0703 18.3072 18.0117 18.1978 17.8945C18.0884 17.7695 18.0338 17.6289 18.0338 17.4727C18.0338 17.3242 18.0767 17.1953 18.1627 17.0859C18.2486 16.9688 18.3658 16.8906 18.5142 16.8516C18.7877 16.8047 19.0611 16.7578 19.3345 16.7109C19.608 16.6641 19.8775 16.6289 20.1431 16.6055V7.875C19.6509 7.85156 19.2369 7.82031 18.9009 7.78125C18.565 7.74219 18.3775 7.71484 18.3384 7.69922C18.1822 7.68359 18.0533 7.62109 17.9517 7.51172C17.858 7.39453 17.8111 7.25781 17.8111 7.10156C17.8111 6.90625 17.8775 6.75391 18.0103 6.64453C18.1509 6.53516 18.2916 6.48047 18.4322 6.48047H18.5142C18.522 6.48828 18.6119 6.50391 18.7838 6.52734C18.9556 6.54297 19.1783 6.5625 19.4517 6.58594C19.7252 6.60938 20.0377 6.62891 20.3892 6.64453C20.7486 6.66016 21.1119 6.66797 21.4791 6.66797C21.8541 6.66797 22.2213 6.65625 22.5806 6.63281C22.94 6.60938 23.272 6.56641 23.5767 6.50391C23.5923 6.48828 23.6314 6.48047 23.6939 6.48047C23.8736 6.48047 24.022 6.54688 24.1392 6.67969C24.2564 6.80469 24.315 6.94531 24.315 7.10156V7.94531C24.6509 7.47656 25.0728 7.08984 25.5806 6.78516C26.0963 6.47266 26.7056 6.31641 27.4088 6.31641C27.94 6.33203 28.4244 6.42578 28.8619 6.59766C29.2994 6.76172 29.6744 6.99219 29.9869 7.28906C30.3072 7.57812 30.5533 7.92969 30.7252 8.34375C30.9048 8.75 30.9947 9.20703 30.9947 9.71484C30.9947 10.0352 30.9439 10.3438 30.8423 10.6406C30.7408 10.9375 30.5963 11.2031 30.4088 11.4375C30.2213 11.6641 29.9908 11.8477 29.7173 11.9883C29.4517 12.1211 29.1548 12.1875 28.8267 12.1875ZM44.2823 11.8125V11.6133C44.2823 11.0273 44.2198 10.4844 44.0948 9.98438C43.9698 9.48438 43.7706 9.04297 43.4972 8.66016C43.2316 8.26953 42.8878 7.94922 42.4659 7.69922C42.0441 7.44922 41.5363 7.28125 40.9425 7.19531C40.5284 7.24219 40.1691 7.35547 39.8644 7.53516C39.5597 7.71484 39.298 7.9375 39.0792 8.20312C38.8683 8.46094 38.6925 8.75391 38.5519 9.08203C38.4113 9.41016 38.298 9.75 38.212 10.1016C38.1339 10.4453 38.0753 10.793 38.0363 11.1445C37.9972 11.4883 37.9738 11.8125 37.9659 12.1172C38.0909 12.1562 38.2472 12.1992 38.4347 12.2461C38.63 12.293 38.8488 12.3398 39.0909 12.3867C39.3331 12.4258 39.5948 12.4609 39.8761 12.4922C40.1652 12.5156 40.4659 12.5273 40.7784 12.5273C41.4425 12.5273 42.0636 12.4648 42.6417 12.3398C43.2277 12.2148 43.7745 12.0391 44.2823 11.8125ZM45.4777 12.2695C45.4542 12.4727 45.3448 12.6484 45.1495 12.7969C44.9542 12.9453 44.7081 13.0781 44.4113 13.1953C44.1144 13.3047 43.7863 13.3984 43.4269 13.4766C43.0753 13.5469 42.7277 13.6055 42.3839 13.6523C42.0402 13.6992 41.7238 13.7344 41.4347 13.7578C41.1456 13.7734 40.9191 13.7812 40.755 13.7812C40.1847 13.7812 39.6573 13.7422 39.173 13.6641C38.6964 13.5859 38.3019 13.5039 37.9894 13.418C38.0363 13.9023 38.1261 14.3789 38.2589 14.8477C38.3917 15.3164 38.5831 15.7383 38.8331 16.1133C39.0831 16.4805 39.3956 16.7812 39.7706 17.0156C40.1456 17.2422 40.5988 17.3555 41.13 17.3555C41.3253 17.3555 41.548 17.332 41.798 17.2852C42.048 17.2305 42.2941 17.1562 42.5363 17.0625C42.7784 16.9609 43.0011 16.8438 43.2042 16.7109C43.4073 16.5703 43.5675 16.4141 43.6847 16.2422C43.8175 16.0859 43.9777 16.0078 44.1652 16.0078C44.3292 16.0078 44.4738 16.0742 44.5988 16.207C44.7238 16.332 44.7863 16.4727 44.7863 16.6289C44.7863 16.793 44.7355 16.9219 44.6339 17.0156C44.4464 17.3047 44.1847 17.5508 43.8488 17.7539C43.5128 17.957 43.1495 18.1211 42.7589 18.2461C42.3683 18.3789 41.9738 18.4727 41.5753 18.5273C41.1769 18.5898 40.8136 18.6211 40.4855 18.6211C39.548 18.6211 38.6769 18.4531 37.8722 18.1172C37.0675 17.7891 36.3683 17.3359 35.7745 16.7578C35.1808 16.1797 34.712 15.5 34.3683 14.7188C34.0323 13.9375 33.8644 13.0938 33.8644 12.1875C33.8644 11.1953 34.0128 10.3125 34.3097 9.53906C34.6066 8.75781 35.0284 8.10156 35.5753 7.57031C36.1222 7.03125 36.7863 6.625 37.5675 6.35156C38.3488 6.07031 39.2277 5.92969 40.2042 5.92969C41.1261 5.96875 41.9191 6.125 42.5831 6.39844C43.255 6.67188 43.8058 7.05078 44.2355 7.53516C44.6652 8.01953 44.9816 8.60547 45.1847 9.29297C45.3956 9.97266 45.5011 10.7383 45.5011 11.5898C45.5011 11.7852 45.4972 11.9414 45.4894 12.0586C45.4816 12.168 45.4777 12.2383 45.4777 12.2695ZM62.8669 6.38672C62.8669 6.52734 62.8239 6.65234 62.738 6.76172C62.652 6.87109 62.5348 6.94531 62.3864 6.98438C62.1208 7.04688 61.8708 7.09766 61.6364 7.13672C61.402 7.16797 61.1716 7.19531 60.945 7.21875C60.7575 8.0625 60.488 8.96484 60.1364 9.92578C59.7927 10.8789 59.3903 11.8516 58.9294 12.8438C58.4684 13.8281 57.9606 14.8047 57.4059 15.7734C56.8591 16.7422 56.2809 17.6602 55.6716 18.5273C55.6247 18.5977 55.5583 18.6602 55.4723 18.7148C55.3942 18.7695 55.3083 18.7969 55.2145 18.7969C55.1052 18.7969 55.0114 18.7773 54.9333 18.7383C54.863 18.707 54.7966 18.6602 54.7341 18.5977C54.2419 18.0898 53.7223 17.4766 53.1755 16.7578C52.6364 16.0391 52.1091 15.2109 51.5934 14.2734C51.0856 13.3281 50.6169 12.2617 50.1872 11.0742C49.7653 9.88672 49.4255 8.57031 49.1677 7.125C48.9958 7.10156 48.8239 7.08203 48.652 7.06641C48.488 7.05078 48.3239 7.02344 48.1598 6.98438C48.0036 6.96094 47.8747 6.89453 47.7731 6.78516C47.6794 6.67578 47.6325 6.54297 47.6325 6.38672C47.6325 6.18359 47.7028 6.03125 47.8434 5.92969C47.9841 5.82031 48.1208 5.76562 48.2536 5.76562C48.2692 5.76562 48.2809 5.76953 48.2887 5.77734C48.3044 5.78516 48.3239 5.78906 48.3473 5.78906C48.8552 5.85938 49.3473 5.91797 49.8239 5.96484C50.3083 6.00391 50.7927 6.02344 51.277 6.02344C51.7614 6.02344 52.2341 6.00391 52.695 5.96484C53.1637 5.91797 53.6286 5.85938 54.0895 5.78906C54.113 5.78906 54.1286 5.78516 54.1364 5.77734C54.152 5.76953 54.1677 5.76562 54.1833 5.76562C54.363 5.76562 54.5114 5.82812 54.6286 5.95312C54.7458 6.07031 54.8044 6.21484 54.8044 6.38672C54.8044 6.52734 54.7575 6.65625 54.6637 6.77344C54.57 6.89062 54.4489 6.96094 54.3005 6.98438C53.9645 7.05469 53.6208 7.10156 53.2692 7.125C53.3395 7.47656 53.4606 7.94531 53.6325 8.53125C53.8044 9.11719 54.0348 9.77734 54.3239 10.5117C54.4958 10.9492 54.6833 11.375 54.8864 11.7891C55.0973 12.2031 55.3044 12.5938 55.5075 12.9609C55.7184 13.3203 55.9177 13.6484 56.1052 13.9453C56.3005 14.2422 56.4684 14.4961 56.6091 14.707C56.9606 14.0742 57.2927 13.4336 57.6052 12.7852C57.9177 12.1289 58.2028 11.4844 58.4606 10.8516C58.7262 10.2109 58.9606 9.58594 59.1637 8.97656C59.3669 8.36719 59.5387 7.78125 59.6794 7.21875C59.4528 7.19531 59.2184 7.16797 58.9762 7.13672C58.7341 7.09766 58.4802 7.04688 58.2145 6.98438C58.0661 6.96094 57.945 6.89062 57.8512 6.77344C57.7575 6.65625 57.7106 6.52734 57.7106 6.38672C57.7106 6.20703 57.777 6.05859 57.9098 5.94141C58.0505 5.82422 58.1911 5.76562 58.3317 5.76562C58.3552 5.76562 58.3747 5.76953 58.3903 5.77734C58.4059 5.78516 58.4255 5.78906 58.4489 5.78906C58.8161 5.85938 59.1481 5.91406 59.445 5.95312C59.7419 5.98438 60.0348 6 60.3239 6C60.613 6 60.8981 5.98438 61.1794 5.95312C61.4684 5.91406 61.777 5.85938 62.1052 5.78906C62.1286 5.78906 62.152 5.78516 62.1755 5.77734C62.1989 5.76953 62.2223 5.76562 62.2458 5.76562C62.4177 5.76562 62.5622 5.83203 62.6794 5.96484C62.8044 6.08984 62.8669 6.23047 62.8669 6.38672ZM71.6545 18.1641H71.5373C71.2248 18.1094 70.9397 18.0625 70.6819 18.0234C70.4241 17.9844 70.178 17.957 69.9436 17.9414C69.7092 17.918 69.4709 17.9023 69.2288 17.8945C68.9944 17.8867 68.7405 17.8828 68.467 17.8828C67.9123 17.8828 67.3733 17.9062 66.8498 17.9531C66.3264 17.9922 65.7522 18.0703 65.1272 18.1875H65.01C64.8147 18.1875 64.6663 18.125 64.5647 18C64.4631 17.8828 64.4123 17.7383 64.4123 17.5664C64.4123 17.4258 64.4553 17.3008 64.5413 17.1914C64.6272 17.082 64.7444 17.0078 64.8928 16.9688C65.1819 16.9219 65.4436 16.8867 65.678 16.8633C65.9123 16.832 66.1623 16.8047 66.428 16.7812V2.47266C65.9358 2.43359 65.5803 2.39844 65.3616 2.36719C65.1506 2.32812 65.0256 2.30859 64.9866 2.30859C64.8303 2.28516 64.7014 2.21484 64.5998 2.09766C64.5061 1.98047 64.4592 1.84766 64.4592 1.69922C64.4592 1.49609 64.5295 1.34375 64.6702 1.24219C64.8108 1.13281 64.9475 1.07812 65.0803 1.07812H65.1506C65.1584 1.07812 65.2288 1.08984 65.3616 1.11328C65.4944 1.12891 65.6741 1.15234 65.9006 1.18359C66.135 1.20703 66.4084 1.23047 66.7209 1.25391C67.0413 1.26953 67.3889 1.27734 67.7639 1.27734C68.1389 1.27734 68.5061 1.26562 68.8655 1.24219C69.2248 1.21094 69.553 1.16406 69.8498 1.10156C69.8733 1.08594 69.9163 1.07812 69.9788 1.07812C70.1584 1.07812 70.3069 1.14453 70.4241 1.27734C70.5413 1.40234 70.5998 1.54297 70.5998 1.69922L70.5764 16.7812C70.7092 16.7969 70.8186 16.8125 70.9045 16.8281C70.9983 16.8359 71.0842 16.8477 71.1623 16.8633C71.2483 16.8711 71.3342 16.8828 71.4202 16.8984C71.5139 16.9062 71.6311 16.9219 71.7717 16.9453C71.9202 16.9844 72.0413 17.0586 72.135 17.168C72.2288 17.2773 72.2756 17.4023 72.2756 17.543C72.2756 17.7227 72.2092 17.8711 72.0764 17.9883C71.9514 18.1055 71.8108 18.1641 71.6545 18.1641ZM83.0906 13.8984C83.075 13.7656 83.0633 13.6289 83.0555 13.4883C83.0477 13.3477 83.0437 13.2031 83.0437 13.0547H82.6102C82.2977 13.0547 81.9266 13.0781 81.4969 13.125C81.075 13.1719 80.6375 13.2461 80.1844 13.3477C79.7312 13.4492 79.282 13.5859 78.8367 13.7578C78.3914 13.9219 77.993 14.125 77.6414 14.3672C77.2898 14.6016 77.0047 14.8789 76.7859 15.1992C76.575 15.5195 76.4695 15.8867 76.4695 16.3008C76.4695 16.5195 76.5203 16.707 76.6219 16.8633C76.7312 17.0195 76.8641 17.1484 77.0203 17.25C77.1844 17.3438 77.3641 17.4141 77.5594 17.4609C77.7547 17.5 77.9422 17.5195 78.1219 17.5195C78.6766 17.5195 79.2 17.4141 79.6922 17.2031C80.1922 16.9844 80.6531 16.7031 81.075 16.3594C81.4969 16.0078 81.8758 15.6172 82.2117 15.1875C82.5477 14.7578 82.8406 14.3281 83.0906 13.8984ZM88.7039 17.9531H88.657C88.5242 17.9375 88.3875 17.9297 88.2469 17.9297C88.1062 17.9297 87.9695 17.9297 87.8367 17.9297C87.1023 17.9297 86.3953 17.9766 85.7156 18.0703C85.0437 18.1641 84.368 18.3086 83.6883 18.5039C83.6648 18.5039 83.6414 18.5078 83.618 18.5156C83.5945 18.5234 83.5633 18.5273 83.5242 18.5273C83.3445 18.5273 83.1961 18.457 83.0789 18.3164C82.9695 18.1836 82.9148 18.0469 82.9148 17.9062V17.8125C82.9148 17.7969 82.9344 17.6406 82.9734 17.3438C83.0125 17.0391 83.0516 16.6172 83.0906 16.0781C82.7547 16.4531 82.3953 16.8047 82.0125 17.1328C81.6375 17.4531 81.2391 17.7344 80.8172 17.9766C80.4031 18.2109 79.9734 18.3945 79.5281 18.5273C79.0828 18.668 78.6219 18.7383 78.1453 18.7383C77.7703 18.7383 77.407 18.6797 77.0555 18.5625C76.7039 18.4531 76.3914 18.293 76.118 18.082C75.8523 17.8711 75.6375 17.6172 75.4734 17.3203C75.3172 17.0156 75.2391 16.6758 75.2391 16.3008C75.2391 15.7148 75.3641 15.1992 75.6141 14.7539C75.8719 14.3086 76.2078 13.9219 76.6219 13.5938C77.0359 13.2578 77.5047 12.9805 78.0281 12.7617C78.5594 12.5352 79.0984 12.3555 79.6453 12.2227C80.1922 12.082 80.7234 11.9844 81.2391 11.9297C81.7547 11.8672 82.2117 11.8359 82.6102 11.8359H82.8914C82.8914 11.3594 82.8055 10.8945 82.6336 10.4414C82.4695 9.98828 82.2352 9.58594 81.9305 9.23438C81.6336 8.88281 81.2781 8.60156 80.8641 8.39062C80.45 8.17188 79.993 8.0625 79.493 8.0625C79.1258 8.0625 78.7664 8.16797 78.4148 8.37891C78.0633 8.58203 77.7508 8.84375 77.4773 9.16406C77.2039 9.48438 76.9812 9.84375 76.8094 10.2422C76.6453 10.6406 76.5633 11.0273 76.5633 11.4023C76.5633 11.5586 76.4969 11.6914 76.3641 11.8008C76.2391 11.9023 76.0984 11.9531 75.9422 11.9531C75.7703 11.9531 75.6219 11.8906 75.4969 11.7656C75.3719 11.6328 75.3094 11.4883 75.3094 11.332C75.3094 10.957 75.3758 10.5664 75.5086 10.1602C75.6414 9.74609 75.8328 9.34375 76.0828 8.95312C76.3406 8.55469 76.6492 8.17969 77.0086 7.82812C77.3758 7.47656 77.7898 7.16797 78.2508 6.90234C78.7195 6.62891 79.2312 6.41406 79.7859 6.25781C80.3406 6.10156 80.9305 6.02344 81.5555 6.02344C82.4305 6.02344 83.1766 6.16016 83.7937 6.43359C84.4187 6.70703 84.9383 7.07812 85.3523 7.54688C85.7742 8.01562 86.1062 8.55859 86.3484 9.17578C86.5906 9.79297 86.7742 10.4453 86.8992 11.1328C87.0242 11.8203 87.1023 12.5195 87.1336 13.2305C87.1727 13.9414 87.1922 14.6211 87.1922 15.2695C87.1922 15.5977 87.1883 15.8789 87.1805 16.1133C87.1727 16.3477 87.1687 16.543 87.1687 16.6992C87.2859 16.6992 87.4031 16.6953 87.5203 16.6875C87.6453 16.6797 87.7664 16.6758 87.8836 16.6758C88.0164 16.6758 88.1531 16.6797 88.2937 16.6875C88.4422 16.6953 88.5867 16.6992 88.7273 16.6992C88.8992 16.7148 89.0359 16.7812 89.1375 16.8984C89.2469 17.0156 89.3016 17.1602 89.3016 17.332C89.3016 17.4961 89.243 17.6406 89.1258 17.7656C89.0164 17.8906 88.8758 17.9531 88.7039 17.9531ZM106.117 17.4727C106.101 17.6289 106.031 17.7617 105.906 17.8711C105.781 17.9727 105.64 18.0234 105.484 18.0234H105.437C105.062 17.9844 104.699 17.957 104.347 17.9414C104.003 17.918 103.663 17.9062 103.327 17.9062C102.835 17.9062 102.363 17.9297 101.91 17.9766C101.464 18.0156 101.027 18.0703 100.597 18.1406C100.581 18.1406 100.562 18.1445 100.538 18.1523C100.523 18.1602 100.507 18.1641 100.492 18.1641C100.327 18.1641 100.183 18.1016 100.058 17.9766C99.933 17.8438 99.8705 17.6992 99.8705 17.543C99.8705 17.4023 99.9173 17.2734 100.011 17.1562C100.113 17.0391 100.234 16.9688 100.374 16.9453C100.702 16.8828 101.031 16.8359 101.359 16.8047C101.695 16.7656 102.038 16.7305 102.39 16.6992C102.46 16.457 102.535 16.1289 102.613 15.7148C102.691 15.3008 102.761 14.8555 102.824 14.3789C102.894 13.9023 102.949 13.4219 102.988 12.9375C103.035 12.4531 103.058 12.0195 103.058 11.6367C103.058 11.2383 103.035 10.8047 102.988 10.3359C102.949 9.86719 102.851 9.42969 102.695 9.02344C102.546 8.60938 102.327 8.26562 102.038 7.99219C101.757 7.71875 101.378 7.58203 100.902 7.58203C100.363 7.58203 99.8627 7.71484 99.4017 7.98047C98.9408 8.24609 98.5423 8.58594 98.2064 9C97.8783 9.40625 97.6166 9.85547 97.4212 10.3477C97.2337 10.8398 97.14 11.3125 97.14 11.7656V11.7891L97.1166 16.9453C97.2572 16.9609 97.3939 16.9766 97.5267 16.9922C97.6595 17 97.7923 17.0156 97.9252 17.0391C98.0814 17.0547 98.2103 17.1211 98.3119 17.2383C98.4212 17.3477 98.4759 17.4805 98.4759 17.6367C98.4759 17.8086 98.4095 17.957 98.2767 18.082C98.1517 18.207 98.0111 18.2695 97.8548 18.2695C97.8236 18.2695 97.8002 18.2578 97.7845 18.2344C97.3158 18.1875 96.8353 18.1406 96.3431 18.0938C95.8587 18.0469 95.347 18.0234 94.808 18.0234C94.3236 18.0234 93.8119 18.0469 93.2728 18.0938C92.7416 18.1484 92.1712 18.2305 91.5619 18.3398C91.5306 18.3555 91.4916 18.3633 91.4447 18.3633C91.265 18.3633 91.1205 18.2969 91.0111 18.1641C90.9017 18.0312 90.847 17.8867 90.847 17.7305C90.847 17.5898 90.89 17.4609 90.9759 17.3438C91.0619 17.2266 91.1791 17.1562 91.3275 17.1328C91.6166 17.0703 91.8939 17.0234 92.1595 16.9922C92.4252 16.9531 92.6908 16.9219 92.9564 16.8984V7.94531C92.4642 7.92188 92.0502 7.89453 91.7142 7.86328C91.3861 7.82422 91.2025 7.79688 91.1634 7.78125C91.0072 7.76562 90.8783 7.69922 90.7767 7.58203C90.683 7.46484 90.6361 7.32812 90.6361 7.17188C90.6361 6.98438 90.7025 6.83594 90.8353 6.72656C90.9681 6.60938 91.1087 6.55078 91.2572 6.55078C91.2884 6.55078 91.3119 6.55859 91.3275 6.57422C91.3353 6.57422 91.4252 6.58203 91.597 6.59766C91.7689 6.61328 91.9916 6.63281 92.265 6.65625C92.5462 6.67969 92.8627 6.69922 93.2142 6.71484C93.5658 6.73047 93.9291 6.73828 94.3041 6.73828C94.6791 6.73828 95.0462 6.73047 95.4056 6.71484C95.765 6.69141 96.0931 6.64453 96.39 6.57422C96.4056 6.57422 96.4212 6.57031 96.4369 6.5625C96.4603 6.55469 96.4837 6.55078 96.5072 6.55078C96.6869 6.55078 96.8353 6.61719 96.9525 6.75C97.0775 6.875 97.14 7.01562 97.14 7.17188V8.37891C97.5931 7.71484 98.1322 7.21484 98.7572 6.87891C99.39 6.53516 100.105 6.36328 100.902 6.36328C101.37 6.36328 101.777 6.44531 102.12 6.60938C102.472 6.76562 102.773 6.98047 103.023 7.25391C103.281 7.52734 103.488 7.84375 103.644 8.20312C103.808 8.55469 103.937 8.92578 104.031 9.31641C104.132 9.70703 104.199 10.1055 104.23 10.5117C104.269 10.9102 104.288 11.2852 104.288 11.6367C104.288 12.0273 104.269 12.457 104.23 12.9258C104.191 13.3867 104.14 13.8477 104.077 14.3086C104.023 14.7695 103.956 15.207 103.878 15.6211C103.808 16.0352 103.738 16.3867 103.667 16.6758C103.964 16.6914 104.269 16.707 104.581 16.7227C104.902 16.7383 105.226 16.7656 105.554 16.8047C105.734 16.8203 105.87 16.8984 105.964 17.0391C106.066 17.1719 106.117 17.3164 106.117 17.4727ZM117.424 9.16406C117.307 8.8125 117.131 8.50781 116.896 8.25C116.662 7.99219 116.393 7.77734 116.088 7.60547C115.791 7.43359 115.471 7.30859 115.127 7.23047C114.783 7.14453 114.435 7.10156 114.084 7.10156C113.553 7.10156 113.08 7.1875 112.666 7.35938C112.252 7.52344 111.889 7.75 111.576 8.03906C111.264 8.32031 110.994 8.65234 110.768 9.03516C110.549 9.41016 110.369 9.80859 110.228 10.2305C110.088 10.6445 109.986 11.0703 109.924 11.5078C109.861 11.9453 109.83 12.3672 109.83 12.7734C109.838 13.3438 109.916 13.8945 110.064 14.4258C110.221 14.9492 110.447 15.418 110.744 15.832C111.049 16.2383 111.416 16.5664 111.846 16.8164C112.283 17.0586 112.787 17.1797 113.357 17.1797C113.881 17.1797 114.346 17.0586 114.752 16.8164C115.158 16.5664 115.514 16.2539 115.818 15.8789C116.131 15.5039 116.393 15.0938 116.603 14.6484C116.814 14.1953 116.982 13.7656 117.107 13.3594C117.232 12.9453 117.318 12.582 117.365 12.2695C117.42 11.9492 117.439 11.7383 117.424 11.6367V9.16406ZM123.014 17.9531H122.967C122.771 17.9375 122.576 17.9258 122.381 17.918C122.193 17.9102 122.01 17.9062 121.83 17.9062C121.33 17.9062 120.861 17.9297 120.424 17.9766C119.986 18.0234 119.603 18.0742 119.275 18.1289C118.955 18.1914 118.697 18.2461 118.502 18.293C118.314 18.3398 118.217 18.3633 118.209 18.3633C118.185 18.3789 118.158 18.3867 118.127 18.3867C118.096 18.3867 118.068 18.3867 118.045 18.3867C117.865 18.3867 117.717 18.3203 117.6 18.1875C117.482 18.0625 117.424 17.9219 117.424 17.7656V15.7734C117.244 16.1484 117.014 16.4961 116.732 16.8164C116.459 17.1367 116.15 17.4141 115.807 17.6484C115.463 17.8828 115.084 18.0664 114.67 18.1992C114.264 18.3398 113.838 18.4102 113.393 18.4102C112.643 18.4102 111.975 18.2578 111.389 17.9531C110.803 17.6484 110.303 17.2422 109.889 16.7344C109.482 16.2188 109.17 15.6211 108.951 14.9414C108.732 14.2617 108.619 13.5469 108.611 12.7969C108.611 12.2109 108.658 11.6367 108.752 11.0742C108.853 10.5039 109.006 9.96484 109.209 9.45703C109.412 8.94141 109.662 8.46484 109.959 8.02734C110.264 7.58984 110.619 7.21484 111.025 6.90234C111.432 6.58203 111.889 6.33203 112.396 6.15234C112.904 5.97266 113.467 5.88281 114.084 5.88281C114.764 5.88281 115.385 5.98438 115.947 6.1875C116.51 6.39062 117.002 6.67188 117.424 7.03125V2.30859C116.939 2.28516 116.529 2.25391 116.193 2.21484C115.865 2.17578 115.682 2.15625 115.643 2.15625C115.486 2.13281 115.353 2.0625 115.244 1.94531C115.143 1.82812 115.092 1.69141 115.092 1.53516C115.092 1.36328 115.154 1.22266 115.279 1.11328C115.412 0.996094 115.557 0.9375 115.713 0.9375H115.783C115.791 0.9375 115.881 0.949219 116.053 0.972656C116.225 0.988281 116.447 1.00781 116.721 1.03125C117.002 1.05469 117.322 1.07812 117.682 1.10156C118.041 1.11719 118.408 1.125 118.783 1.125C119.15 1.125 119.51 1.11328 119.861 1.08984C120.221 1.05859 120.549 1.00781 120.846 0.9375H120.998C121.178 0.9375 121.322 1 121.432 1.125C121.541 1.24219 121.596 1.37891 121.596 1.53516V16.6758H121.83C122.033 16.6758 122.236 16.6797 122.439 16.6875C122.65 16.6875 122.857 16.6992 123.06 16.7227C123.232 16.7383 123.369 16.8047 123.471 16.9219C123.58 17.0391 123.635 17.1758 123.635 17.332C123.635 17.5195 123.564 17.6719 123.424 17.7891C123.291 17.8984 123.154 17.9531 123.014 17.9531Z" fill="white"/>
</g></svg></svg>